<svg xmlns="http://www.w3.org/2000/svg" xmlns:xlink="http://www.w3.org/1999/xlink" width="961.683" height="955.777" viewBox="0 0 961.683 955.777">
  <defs>
    <clipPath id="clip-path">
      <rect id="Rectangle_850" data-name="Rectangle 850" width="961.683" height="955.777" fill="none"/>
    </clipPath>
  </defs>
  <g id="bg" clip-path="url(#clip-path)">
    <path id="Path_5008" data-name="Path 5008" d="M790.665,893.281a1.72,1.72,0,0,0-2.547.739l-5.4,14.244a1.661,1.661,0,0,0-.043,1.051l1.851,6.384-8.418,2.44-1.85-6.384a1.657,1.657,0,0,0-.6-.865l-12.183-9.146a1.72,1.72,0,0,0-2.547.739l-5.4,14.243a1.662,1.662,0,0,0-.043,1.051l1.851,6.384-8.417,2.44-1.851-6.384a1.66,1.66,0,0,0-.6-.865l-12.183-9.145a1.66,1.66,0,0,0-2.547.738l-5.4,14.244a1.661,1.661,0,0,0-.043,1.051L740.138,980.9a1.659,1.659,0,0,0,2.056,1.131l17.587-5.1a1.659,1.659,0,0,0,1.131-2.055l-2.8-9.647,8.417-2.441,2.8,9.648a1.659,1.659,0,0,0,2.055,1.131l17.586-5.1a1.658,1.658,0,0,0,1.131-2.055l-2.8-9.648,8.417-2.441,2.8,9.648a1.658,1.658,0,0,0,2.055,1.131l17.586-5.1a1.659,1.659,0,0,0,1.131-2.055l-15.847-54.664a1.66,1.66,0,0,0-.6-.865Zm-11.191,36.474,8.418-2.44,4.464,15.4-8.418,2.44Zm5.974-10.871,1.52,5.244-8.417,2.441-1.521-5.245Zm-35.164,19.333,8.417-2.44,4.464,15.4-8.417,2.441Zm5.973-10.87,1.521,5.244-8.417,2.44-1.521-5.244Zm1.007,46.863-14.4,4.175-15.231-52.538,4.424-11.662,9.975,7.488,2.159,7.445,2.443,8.43,5.388,18.584,2.444,8.43Zm-.072-12.164-1.521-5.243,8.417-2.441,1.521,5.245Zm29.262,3.7-14.4,4.174-2.8-9.648-2.443-8.43-5.388-18.584-2.444-8.431-2.158-7.445,4.424-11.663,9.976,7.488,2.158,7.445,2.444,8.431,5.387,18.584,2.444,8.431Zm-.073-12.165-1.52-5.244,8.417-2.44,1.521,5.244Zm29.263,3.7-14.4,4.175-2.8-9.648L796,943.381,790.616,924.8l-2.444-8.431-2.158-7.445,4.424-11.662,9.976,7.487Z" transform="translate(-219.051 -270.095)" fill="#f8efe1"/>
    <path id="Path_5009" data-name="Path 5009" d="M569.833,964.649c-.315.722-7.656,17.835-3.8,31.14a13.6,13.6,0,0,0,26.117-7.571c-3.857-13.3-19.214-23.838-19.865-24.281a1.716,1.716,0,0,0-2.453.712m12.121,37.226a10.289,10.289,0,0,1-12.734-7.01c-2.808-9.683,1.139-22.187,2.891-26.942,4.023,3.081,14.046,11.534,16.852,21.218a10.29,10.29,0,0,1-7.01,12.734" transform="translate(-170.866 -291.478)" fill="#f8efe1"/>
    <path id="Path_5010" data-name="Path 5010" d="M496.433,985.928a1.716,1.716,0,0,0-2.453.711c-.315.722-7.656,17.835-3.8,31.14a13.6,13.6,0,0,0,26.117-7.571c-3.857-13.3-19.214-23.838-19.865-24.281m9.669,37.938a10.289,10.289,0,0,1-12.734-7.01c-2.808-9.683,1.139-22.187,2.891-26.942,4.023,3.081,14.046,11.534,16.853,21.218a10.29,10.29,0,0,1-7.01,12.734" transform="translate(-147.923 -298.13)" fill="#f8efe1"/>
    <path id="Path_5011" data-name="Path 5011" d="M541.647,1010.034c-.348.8-8.475,19.744-4.21,34.455a14.914,14.914,0,0,0,28.649-8.306c-4.265-14.71-21.264-26.371-21.986-26.86a1.715,1.715,0,0,0-2.453.711m13.342,41.439a11.61,11.61,0,0,1-14.367-7.909c-3.178-10.964,1.4-25.15,3.3-30.264,4.344,3.3,15.792,12.827,18.974,23.806a11.61,11.61,0,0,1-7.909,14.366" transform="translate(-162.181 -305.206)" fill="#f8efe1"/>
    <path id="Path_5012" data-name="Path 5012" d="M303.349,14.559a1.716,1.716,0,0,0-2.453.711c-.315.722-7.656,17.835-3.8,31.14a13.6,13.6,0,0,0,26.117-7.571C319.357,25.535,304,15,303.349,14.559M313.017,52.5a10.289,10.289,0,0,1-12.734-7.01c-2.808-9.683,1.139-22.187,2.891-26.942,4.023,3.081,14.046,11.534,16.852,21.218a10.29,10.29,0,0,1-7.01,12.734" transform="translate(-89.523 -4.327)" fill="#f8efe1"/>
    <path id="Path_5013" data-name="Path 5013" d="M348.562,38.665c-.348.8-8.475,19.744-4.21,34.454A14.914,14.914,0,0,0,373,64.814c-4.265-14.71-21.264-26.371-21.986-26.86a1.715,1.715,0,0,0-2.453.711M361.9,80.1A11.61,11.61,0,0,1,347.538,72.2c-3.179-10.964,1.4-25.15,3.3-30.264,4.344,3.3,15.791,12.827,18.974,23.806A11.61,11.61,0,0,1,361.9,80.1" transform="translate(-103.78 -11.403)" fill="#f8efe1"/>
    <path id="Path_5014" data-name="Path 5014" d="M312.185,1042.633l-.532,10.184-74.247,21.448h0a1.659,1.659,0,0,0-.636,2.838l20.317,17.922a10.613,10.613,0,1,0,19.243,3.064l27.925-8.1,2.084,7.187a1.659,1.659,0,1,0,3.186-.924l-2.084-7.187,4.593-1.332a1.657,1.657,0,0,0,1.194-1.507l2.21-42.248,11.237-3.258-.924-3.187-12.371,3.587a1.658,1.658,0,0,0-1.195,1.507m-44.106,65.087a7.305,7.305,0,1,1,4.982-9.05,7.313,7.313,0,0,1-4.982,9.05m41.9-22.838-34.966,10.137a10.6,10.6,0,0,0-15.74-2.49l-18.04-15.914,70.24-20.291Z" transform="translate(-71.444 -313.82)" fill="#f8efe1"/>
    <path id="Path_5015" data-name="Path 5015" d="M1231.1,579.775a1.68,1.68,0,0,0-1.336-.117c-.17.059-1.3.451-3.009,1.22a15.123,15.123,0,0,0-9.464-7.36c-.036-.138-.073-.275-.112-.41a14.989,14.989,0,0,0-21.638-8.94,14.979,14.979,0,0,0-22.469,6.514,14.99,14.99,0,0,0-13.5,19.127c.04.135.082.271.124.407a15.117,15.117,0,0,0-4.06,11.281c-1.858.266-3.02.536-3.2.578a1.674,1.674,0,0,0-1.065.813,1.652,1.652,0,0,0-.117,1.335c.236.693,5.946,17.047,20.143,24.862s31.07,3.894,31.78,3.723V632.8c.025-.006.051-.007.076-.015l.073-.023c.693-.236,17.046-5.946,24.862-20.143s3.894-31.07,3.724-31.78a1.659,1.659,0,0,0-.813-1.066m-68.366,12.1a1.658,1.658,0,0,0,.419-1.849,11.669,11.669,0,0,1,11.049-16.05,1.658,1.658,0,0,0,1.611-1.147,11.664,11.664,0,0,1,18.559-5.38,1.656,1.656,0,0,0,1.975.107,11.67,11.67,0,0,1,17.645,6.477c.109.378.2.775.277,1.178a1.657,1.657,0,0,0,1.341,1.336,11.767,11.767,0,0,1,8.158,5.787c-5.05,2.649-12.21,7.382-17.188,14.736-5.381-13.715-18.22-21.715-18.8-22.071a1.71,1.71,0,0,0-2.355.683c-.3.612-6.871,14.238-4.082,28.705-8.139-3.552-16.721-3.722-22.4-3.259a11.765,11.765,0,0,1,3.8-9.253m33.711,11.468a1.659,1.659,0,1,0-3.186.924l6.586,22.718c-4.517-3.662-11.779-10.767-14.571-20.4-3.311-11.421.61-23.271,2.364-27.664,3.832,2.774,13.483,10.688,16.794,22.11,2.786,9.611.453,19.506-1.4,25.025Zm-41.333,1.6c4.642-.744,16.942-1.955,27.322,3.664a41.548,41.548,0,0,0,8.029,13.9l-11.853-6.526a1.659,1.659,0,0,0-1.6,2.906l20.717,11.405c-5.792.6-15.964.7-24.727-4.121-10.418-5.735-16.023-16.886-17.888-21.233m70.171,6.076c-4.825,8.765-13.474,14.115-18.688,16.7l11.4-20.715a1.659,1.659,0,1,0-2.906-1.6l-6.526,11.853a41.542,41.542,0,0,0-.652-16.042c5.765-10.3,16.805-15.856,21.126-17.709.749,4.67,1.976,17.09-3.759,27.508" transform="translate(-348.184 -169.815)" fill="#f8efe1"/>
    <path id="Path_5016" data-name="Path 5016" d="M147.711,29.571a1.679,1.679,0,0,0-1.335-.117c-.171.059-1.3.451-3.01,1.22a15.122,15.122,0,0,0-9.464-7.36c-.036-.138-.073-.275-.112-.41a14.989,14.989,0,0,0-21.638-8.94,14.98,14.98,0,0,0-22.469,6.514A14.99,14.99,0,0,0,76.182,39.6c.04.135.082.271.124.407a15.117,15.117,0,0,0-4.06,11.281c-1.858.266-3.02.536-3.2.578a1.675,1.675,0,0,0-1.065.813,1.655,1.655,0,0,0-.117,1.335c.236.693,5.946,17.046,20.143,24.862s31.07,3.894,31.781,3.723V82.6c.025-.006.051-.007.076-.015l.073-.023c.693-.236,17.046-5.946,24.862-20.143s3.894-31.07,3.723-31.781a1.659,1.659,0,0,0-.813-1.066M79.346,41.67a1.658,1.658,0,0,0,.419-1.849,11.669,11.669,0,0,1,11.049-16.05,1.658,1.658,0,0,0,1.611-1.147,11.664,11.664,0,0,1,18.559-5.381,1.655,1.655,0,0,0,1.975.107A11.67,11.67,0,0,1,130.6,23.827a12.1,12.1,0,0,1,.277,1.178,1.657,1.657,0,0,0,1.341,1.336,11.767,11.767,0,0,1,8.158,5.787c-5.049,2.649-12.21,7.382-17.188,14.736-5.381-13.715-18.22-21.715-18.8-22.071a1.711,1.711,0,0,0-2.356.683c-.3.612-6.871,14.238-4.082,28.7-8.138-3.551-16.721-3.721-22.4-3.258a11.764,11.764,0,0,1,3.8-9.253m33.711,11.467a1.659,1.659,0,0,0-3.186.924l6.586,22.718c-4.517-3.662-11.779-10.767-14.572-20.4-3.311-11.421.611-23.271,2.365-27.664,3.832,2.774,13.483,10.688,16.794,22.11,2.786,9.611.453,19.506-1.4,25.025Zm-41.333,1.6c4.642-.744,16.942-1.955,27.322,3.664a41.546,41.546,0,0,0,8.029,13.9L95.222,65.784a1.659,1.659,0,1,0-1.6,2.906l20.717,11.405c-5.792.6-15.965.7-24.727-4.121C79.194,70.239,73.588,59.088,71.724,54.741M141.9,60.817c-4.826,8.765-13.474,14.115-18.688,16.7l11.4-20.715a1.659,1.659,0,1,0-2.906-1.6L125.179,67.06a41.544,41.544,0,0,0-.652-16.042c5.765-10.3,16.805-15.856,21.126-17.709.749,4.67,1.976,17.09-3.758,27.508" transform="translate(-20.501 -3.399)" fill="#f8efe1"/>
    <path id="Path_5017" data-name="Path 5017" d="M228.46,655.145a4.86,4.86,0,1,0-6.021-3.315,4.865,4.865,0,0,0,6.021,3.315M226.677,649a1.542,1.542,0,1,1-1.052,1.911A1.544,1.544,0,0,1,226.677,649" transform="translate(-67.221 -195.278)" fill="#f8efe1"/>
    <path id="Path_5018" data-name="Path 5018" d="M141.392,680.386a4.86,4.86,0,1,0-6.021-3.315,4.864,4.864,0,0,0,6.021,3.315m-1.783-6.149a1.542,1.542,0,1,1-1.052,1.911,1.544,1.544,0,0,1,1.052-1.911" transform="translate(-40.886 -202.912)" fill="#f8efe1"/>
    <path id="Path_5019" data-name="Path 5019" d="M138.746,710.368l80.361-23.3a1.659,1.659,0,0,0,1.131-2.055L214.8,666.253a1.659,1.659,0,0,0-2.056-1.131l-3.334.967-3.023-10.428,3.334-.967a1.658,1.658,0,0,0,1.131-2.055l-5.439-18.763a1.658,1.658,0,0,0-2.055-1.131L123,656.041a1.659,1.659,0,0,0-1.131,2.055l5.439,18.763a1.659,1.659,0,0,0,2.056,1.131l3.334-.967,3.023,10.428-3.334.967a1.658,1.658,0,0,0-1.131,2.055l5.439,18.764a1.658,1.658,0,0,0,2.055,1.131m67.476-43.356-6.585,1.909-3.022-10.428,6.585-1.909ZM148.675,683.7l-3.023-10.428,47.776-13.85,3.023,10.428Zm-23.162-24.93,77.174-22.373,4.516,15.577-3.335.967-9.771,2.833-50.962,14.774-9.772,2.833-3.334.967ZM135.881,676.1l6.585-1.908,3.022,10.427-6.584,1.909Zm-.981,15.043,3.335-.967,9.771-2.833,50.963-14.774,9.771-2.833,3.335-.967,4.515,15.577L139.415,706.72Z" transform="translate(-36.84 -191.364)" fill="#f8efe1"/>
    <path id="Path_5020" data-name="Path 5020" d="M239.209,692.227a4.86,4.86,0,1,0,6.021,3.315,4.864,4.864,0,0,0-6.021-3.315m1.783,6.149a1.542,1.542,0,1,1,1.052-1.911,1.544,1.544,0,0,1-1.052,1.911" transform="translate(-71.291 -209.317)" fill="#f8efe1"/>
    <path id="Path_5021" data-name="Path 5021" d="M152.14,717.468a4.86,4.86,0,1,0,6.021,3.315,4.865,4.865,0,0,0-6.021-3.315m1.783,6.149a1.542,1.542,0,1,1,1.052-1.911,1.544,1.544,0,0,1-1.052,1.911" transform="translate(-44.956 -216.952)" fill="#f8efe1"/>
    <path id="Path_5022" data-name="Path 5022" d="M1271.388,757.926a4.747,4.747,0,0,0-6.45,1.87l-.984,1.787a107.909,107.909,0,0,0-37.973,11.008l-1.787-.984a4.748,4.748,0,1,0-4.58,8.32l2.254,1.241a246.876,246.876,0,0,0,14.071,48.539l-1.242,2.254a4.749,4.749,0,0,0,8.32,4.581l.984-1.788a107.9,107.9,0,0,0,37.971-11.008l1.787.984a4.749,4.749,0,0,0,4.581-8.32l-2.255-1.242a246.875,246.875,0,0,0-14.071-48.539l1.242-2.254a4.756,4.756,0,0,0-1.87-6.45m5.723,33.536a244.8,244.8,0,0,1,5.928,25.5,1.658,1.658,0,0,0,1.363,1.348,1.681,1.681,0,0,0,.515,0l1.825,1a1.434,1.434,0,0,1,.564,1.944,1.465,1.465,0,0,1-1.944.564l-2.557-1.408a1.659,1.659,0,0,0-1.262-.14,1.621,1.621,0,0,0-.3.118,104.651,104.651,0,0,1-38.422,11.139,1.647,1.647,0,0,0-1.3.852l-1.408,2.557a1.431,1.431,0,1,1-2.508-1.38l1.005-1.826a1.685,1.685,0,0,0,.433-.279,1.659,1.659,0,0,0,.43-1.868,243.633,243.633,0,0,1-14.555-50.211,1.662,1.662,0,0,0-1.879-1.353l-1.826-1a1.431,1.431,0,1,1,1.38-2.508l2.557,1.408a1.65,1.65,0,0,0,1.558.022,104.65,104.65,0,0,1,38.422-11.139,1.649,1.649,0,0,0,1.305-.852l1.408-2.557a1.462,1.462,0,0,1,1.943-.563,1.433,1.433,0,0,1,.564,1.943l-1.006,1.825a1.662,1.662,0,0,0-.864,2.147,244.877,244.877,0,0,1,8.629,24.714" transform="translate(-368.144 -229.068)" fill="#f8efe1"/>
    <path id="Path_5023" data-name="Path 5023" d="M1258.269,793.015a16.4,16.4,0,1,0,20.312,11.183,16.416,16.416,0,0,0-20.312-11.183m8.207,28.31a13.078,13.078,0,1,1,8.919-16.2,13.093,13.093,0,0,1-8.919,16.2" transform="translate(-377 -239.664)" fill="#f8efe1"/>
    <path id="Path_5024" data-name="Path 5024" d="M1271.164,801.489c-.25.085-6.162,2.151-9,7.314s-1.424,11.262-1.363,11.519c0,.013.01.024.013.036a1.657,1.657,0,0,0,.067.187c.016.042.029.085.049.125a1.918,1.918,0,0,0,.11.181c.022.033.04.068.064.1a1.757,1.757,0,0,0,.167.177c.022.021.04.046.063.066a1.713,1.713,0,0,0,.28.195,1.761,1.761,0,0,0,.3.129,1.58,1.58,0,0,0,.2.043c.038.006.076.019.115.024a1.7,1.7,0,0,0,.23,0c.031,0,.061,0,.093,0a1.582,1.582,0,0,0,.317-.059l.073-.022c.25-.087,6.163-2.151,9-7.314s1.425-11.262,1.363-11.519a1.657,1.657,0,0,0-.813-1.066,1.687,1.687,0,0,0-1.335-.118m-2.12,11.1a10.714,10.714,0,0,1-2.2,2.722l1.661-3.017a1.659,1.659,0,0,0-2.907-1.6l-1.669,3.031a10.8,10.8,0,0,1,1.134-3.325,13.169,13.169,0,0,1,5.292-4.908,13.163,13.163,0,0,1-1.315,7.1" transform="translate(-381.22 -242.397)" fill="#f8efe1"/>
    <path id="Path_5025" data-name="Path 5025" d="M89.505,515.551l10.063-2.918a1.658,1.658,0,0,0,1.131-2.055l-.981-3.384,5.55-1.609,21.44-3.174a23.769,23.769,0,0,0,12.38-5.8l20.968-18.753a5.985,5.985,0,0,0-7.9-8.993l-6.866,5.925c-2.8-1.5-14.154-6.986-25.6-4.415a53.364,53.364,0,0,1-2.379-18.41c1.519-1.316,5.248-4.992,6.218-10.087,1.2-6.306-2.328-12.149-2.478-12.395a1.659,1.659,0,0,0-2.409-.459c-.23.172-5.661,4.309-6.862,10.615-1.025,5.383,1.389,10.415,2.215,11.93-.063,1.065-.093,2.11-.091,3.129-.107-.086-.214-.173-.329-.262-.62-1.535-2.993-6.677-7.865-9.315-5.645-3.057-12.283-1.466-12.563-1.4a1.659,1.659,0,0,0-1.168,2.157c.095.272,2.39,6.7,8.036,9.757h0c4.523,2.45,9.675,1.915,11.691,1.57a9.823,9.823,0,0,1,2.448,2.551A55.671,55.671,0,0,0,116.5,471.31c-9.39,3.4-15.955,11.566-18.578,16.3l-1.6,1.279-1.769.513-.981-3.384a1.659,1.659,0,0,0-2.055-1.131L81.461,487.8a1.658,1.658,0,0,0-1.131,2.055l7.121,24.564a1.659,1.659,0,0,0,2.055,1.131m6.468-68.907a14.827,14.827,0,0,1,8.161,1.391,12.088,12.088,0,0,1,3.186,2.574c-1.137-.571-2.4-1.158-3.8-1.758a1.659,1.659,0,1,0-1.3,3.052c1.841.786,3.4,1.539,4.724,2.25a12.994,12.994,0,0,1-5.341-1.434h0a14.822,14.822,0,0,1-5.626-6.074m44.146,32.6a5.833,5.833,0,0,0-6.252-2.067l-5.011,1.453a30.848,30.848,0,0,1-6.846,1.17l-6.626.374a27.465,27.465,0,0,0-9.462,2.263,30.379,30.379,0,0,1,13.165-8.5c9.462-2.743,19.559,1.311,23.481,3.191Zm-25.076-38.992a14.823,14.823,0,0,1,4.083-7.2,14.819,14.819,0,0,1,1.149,8.2h0a13.038,13.038,0,0,1-2.3,5.089,39.982,39.982,0,0,1,1.267-5.077,1.659,1.659,0,1,0-3.158-1.018c-.434,1.346-.785,2.684-1.077,4.01a12.092,12.092,0,0,1,.04-4M97.57,491.98a1.649,1.649,0,0,0,.575-.3l2.105-1.687.006,0,1.507-1.209a24.124,24.124,0,0,1,13.808-5.291l6.626-.373a34.184,34.184,0,0,0,7.582-1.3l5.012-1.453a2.51,2.51,0,1,1,1.4,4.821l-15.042,4.36a1.659,1.659,0,1,0,.924,3.186l15.042-4.36a5.834,5.834,0,0,0,4.2-5.772l13.015-11.231a2.668,2.668,0,0,1,4.3,1.277,2.68,2.68,0,0,1-.784,2.731l-20.969,18.753a20.425,20.425,0,0,1-10.653,4.994l-21.552,3.191a1.575,1.575,0,0,0-.219.047L98.8,504.007l-3.311-11.422Zm-13.593-1.456,6.877-1.994,6.2,21.377L90.175,511.9Z" transform="translate(-24.277 -129.665)" fill="#f8efe1"/>
    <path id="Path_5026" data-name="Path 5026" d="M509.548,766.336l-13.006,3.77-2.837-9.786a1.659,1.659,0,0,0-2.055-1.131l-48.09,13.942a1.658,1.658,0,0,0-1.131,2.055l10.138,34.972-17.155-10.592-.412-7.2a1.661,1.661,0,0,0-.628-1.207l-3.982-3.144a1.658,1.658,0,0,0-2.372.33l-5.945,8.216-5.749,8.311a1.658,1.658,0,0,0,.479,2.346l4.29,2.709a1.661,1.661,0,0,0,1.348.19l6.929-2.009,29.5,23.778,2.359,8.137a1.659,1.659,0,0,0,2.055,1.131l48.09-13.942a1.659,1.659,0,0,0,1.131-2.055l-6.82-23.525,13.006-3.77a1.659,1.659,0,0,0,1.132-2.055l-8.216-28.34a1.659,1.659,0,0,0-2.056-1.131m-.695,58.152-44.9,13.017-2.043-7.046a1.658,1.658,0,0,0-.552-.83l-30.577-24.648a1.659,1.659,0,0,0-1.5-.3l-7.042,2.042-2.2-1.387,4.745-6.86,4.911-6.786,2.039,1.61.418,7.32a1.66,1.66,0,0,0,.785,1.316l21.553,13.308a1.659,1.659,0,0,0,2.465-1.874l-10.875-37.513,44.9-13.018,2.837,9.785,8.216,28.34Zm7.317-29.35-11.412,3.308-7.292-25.153,11.412-3.308Z" transform="translate(-125.833 -229.609)" fill="#f8efe1"/>
    <path id="Path_5027" data-name="Path 5027" d="M270.737,842.212a1.66,1.66,0,0,0-.683-2.356,16.265,16.265,0,0,0-6.922-1.462,16.258,16.258,0,0,0,.091-7.074,1.659,1.659,0,0,0-.813-1.065,1.7,1.7,0,0,0-1.335-.117A16.254,16.254,0,0,0,255.147,834a16.257,16.257,0,0,0-4.939-5.068,1.711,1.711,0,0,0-2.356.683c-.1.2-2.421,5.015-1.018,9.855a11.79,11.79,0,0,0,1.409,3.056,15.429,15.429,0,0,0-14.558,7.93,1.676,1.676,0,0,0-.089.186l-21.419,53.836a8.275,8.275,0,0,0,14.384,7.918L260.594,865.5a1.76,1.76,0,0,0,.111-.174,15.429,15.429,0,0,0-1.085-16.542,11.792,11.792,0,0,0,3.336-.444c4.838-1.4,7.664-5.938,7.782-6.131m-20.605-9.143a10.4,10.4,0,0,1,3.012,4.535c.006.03.029.123.038.153a1.659,1.659,0,0,0,3.065.325l.047-.1a10.461,10.461,0,0,1,3.947-3.79,10.427,10.427,0,0,1-1.072,5.332c-.016.024-.066.105-.08.131a1.659,1.659,0,0,0,1.9,2.411l.156-.052a10.489,10.489,0,0,1,5.449.119,10.472,10.472,0,0,1-4.565,3.021c-3.315.961-6.855-.533-7.4-.777-.491-.326-3.658-2.537-4.614-5.834a10.466,10.466,0,0,1,.111-5.476m7.714,30.572-33.969,46.806a4.956,4.956,0,0,1-8.616-4.743l3.873-9.733,1.8.991a1.659,1.659,0,0,0,1.6-2.907l-2.164-1.191,3.4-8.552,3.165,1.742a1.659,1.659,0,0,0,1.6-2.906l-3.53-1.943,3.4-8.552,4.531,2.494a1.659,1.659,0,1,0,1.6-2.906l-4.895-2.695,3.4-8.552,5.9,3.246a1.659,1.659,0,1,0,1.6-2.906l-6.26-3.447,2.355-5.919a12.1,12.1,0,0,1,21.205,11.673" transform="translate(-63.999 -250.655)" fill="#f8efe1"/>
    <path id="Path_5028" data-name="Path 5028" d="M985.064,629.757l-17.414,5.049-2.287-7.891,2.134-.619a1.659,1.659,0,1,0-.924-3.186l-3.728,1.08a1.659,1.659,0,0,0-1.131,2.055l2.749,9.484L941.3,642.446a1.66,1.66,0,0,0-.932.694l-4.325,6.711-5.647-3.109,2.4-4.354a1.659,1.659,0,1,0-2.906-1.6L923.488,652.4a1.659,1.659,0,1,0,2.906,1.6l2.4-4.355,5.446,3-4.348,6.746a1.66,1.66,0,0,0-.2,1.361l1.36,4.69a20.266,20.266,0,0,0-4.808.784l-10.213,2.96a6.378,6.378,0,0,1-7.892-4.344l-1.214-4.19a1.659,1.659,0,1,0-3.186.924l1.214,4.19a9.69,9.69,0,0,0,11.573,6.708,20.315,20.315,0,1,0,35.286,9.225l28.062-8.135a10.99,10.99,0,1,0,15.086-4.374l1.419-.411a1.66,1.66,0,0,0,1.131-2.056l-10.389-35.835a1.659,1.659,0,0,0-2.055-1.131m-51.978,30.8,9.729-15.1,41.579-12.053,9.465,32.649-42.975,12.458A20.357,20.357,0,0,0,934.55,665.6Zm3.548,41.52a17,17,0,1,1,11.6-21.07v0l0,.006a17.023,17.023,0,0,1-11.6,21.06M996.92,676.61a7.672,7.672,0,1,1-9.505-5.233,7.681,7.681,0,0,1,9.505,5.233" transform="translate(-273.326 -188.45)" fill="#f8efe1"/>
    <path id="Path_5029" data-name="Path 5029" d="M936.982,698.915a10.054,10.054,0,1,0,12.455,6.857,10.064,10.064,0,0,0-12.455-6.857m4.675,16.126a6.737,6.737,0,1,1,4.595-8.346,6.743,6.743,0,0,1-4.595,8.346" transform="translate(-281.207 -211.278)" fill="#f8efe1"/>
    <path id="Path_5030" data-name="Path 5030" d="M1026.013,705.535a5,5,0,1,0-6.2-3.413,5.009,5.009,0,0,0,6.2,3.413m-1.862-6.425A1.686,1.686,0,1,1,1023,701.2a1.689,1.689,0,0,1,1.15-2.088" transform="translate(-308.396 -210.434)" fill="#f8efe1"/>
    <path id="Path_5031" data-name="Path 5031" d="M597.281,1230.681l11.661-3.38a1.658,1.658,0,0,0,1.131-2.055l-3.38-11.661a1.658,1.658,0,0,0-2.055-1.131l-11.661,3.38a1.658,1.658,0,0,0-1.131,2.055l3.38,11.661a1.659,1.659,0,0,0,2.055,1.131m-1.787-12.122,8.474-2.457,2.457,8.474-8.474,2.457Z" transform="translate(-178.991 -366.705)" fill="#f8efe1"/>
    <path id="Path_5032" data-name="Path 5032" d="M626.648,1162.535l-5.213,1.511a10.049,10.049,0,0,0-6.846,12.434l5.444,18.779a29.527,29.527,0,0,0-29.586-8.015l-7.826,2.269a29.536,29.536,0,0,0-20.121,36.55l10.154,35.026a1.659,1.659,0,0,0,2.055,1.131l14.542-4.215,32.227-9.343,14.542-4.216,21.306-6.176a1.659,1.659,0,0,0,1.131-2.056l-19.375-66.835a10.048,10.048,0,0,0-12.434-6.846m-4.289,4.7,5.213-1.511a6.726,6.726,0,0,1,8.324,4.583l.294,1.013-18.119,5.252-.294-1.013a6.727,6.727,0,0,1,4.582-8.324m-56.671,57.907a26.214,26.214,0,0,1,17.859-32.44l7.825-2.268a26.213,26.213,0,0,1,32.44,17.858l9.692,33.432-11.355,3.292-8.88-30.634a1.719,1.719,0,0,0-.122-.3c-.023-.045-.054-.083-.08-.125a1.633,1.633,0,0,0-.1-.146,1.557,1.557,0,0,0-.125-.13c-.034-.034-.064-.071-.1-.1a1.66,1.66,0,0,0-.57-.313c-.045-.015-.091-.02-.137-.03a1.587,1.587,0,0,0-.18-.037c-.058-.006-.115,0-.173,0s-.1,0-.15,0a1.678,1.678,0,0,0-.322.059l-32.226,9.343h0a1.651,1.651,0,0,0-.3.122c-.042.022-.08.051-.119.076a1.7,1.7,0,0,0-.152.1,1.675,1.675,0,0,0-.124.119c-.036.036-.075.068-.107.107a1.655,1.655,0,0,0-.313.569c-.015.047-.02.094-.031.141a1.511,1.511,0,0,0-.036.176c-.006.059,0,.117,0,.175s0,.1,0,.149a1.616,1.616,0,0,0,.059.321l8.88,30.633-11.355,3.292Zm33.891,8.234-15.823-8.711,24.534-7.113Zm11.618-14.223,7.112,24.534-15.823-8.711Zm-13.217,17.129-8.711,15.823-7.113-24.534Zm2.906,1.6,15.824,8.711-24.534,7.113Zm35.8,2.919L627,1207.366l-8-27.609,18.119-5.253,17.7,61.042Z" transform="translate(-169.782 -351.506)" fill="#f8efe1"/>
    <path id="Path_5033" data-name="Path 5033" d="M1126.9,438.523c.079-.116,8.044-11.689,20.614-15.333s25.489,1.874,25.618,1.93a1.659,1.659,0,0,0,1.328-3.041c-.548-.239-13.086-5.612-26.264-2.494l-2.735-9.435,3.428-6.226c1.809-.737,7.107-3.241,9.891-8.3,3.317-6.025,1.659-13.151,1.588-13.451a1.659,1.659,0,0,0-2.148-1.183c-.292.1-7.2,2.512-10.516,8.537-2.784,5.056-2.066,10.874-1.72,12.795l-1.828,3.32-4.11-14.179,3.428-6.227c1.809-.736,7.107-3.24,9.89-8.3,3.318-6.025,1.66-13.151,1.588-13.452a1.661,1.661,0,0,0-2.148-1.183c-.292.1-7.2,2.512-10.516,8.537-2.784,5.057-2.066,10.874-1.721,12.795l-1.828,3.32-2.621-9.042c.759-1.8,2.734-7.316,1.127-12.86-1.916-6.606-8.126-10.474-8.389-10.635a1.714,1.714,0,0,0-2.356.683c-.136.277-3.315,6.867-1.4,13.472,1.607,5.544,6.227,9.15,7.831,10.264l1.109,3.827-3.32-1.828c-.735-1.808-3.24-7.106-8.3-9.89-6.025-3.317-13.151-1.661-13.451-1.589a1.677,1.677,0,0,0-1.065.813,1.652,1.652,0,0,0-.117,1.335c.1.292,2.511,7.2,8.536,10.517,5.057,2.784,10.873,2.066,12.795,1.721l6.226,3.428,4.111,14.178-3.32-1.828c-.736-1.808-3.24-7.107-8.3-9.891-6.025-3.317-13.151-1.66-13.451-1.588a1.66,1.66,0,0,0-1.183,2.148c.1.292,2.512,7.2,8.536,10.517,5.056,2.783,10.872,2.066,12.795,1.72l6.226,3.428,4.247,14.65c-12.8,4.413-20.523,15.658-20.858,16.154a1.659,1.659,0,0,0,2.748,1.859m23.709-47.393a16.251,16.251,0,0,1,6.826-6.168,16.257,16.257,0,0,1-1.562,9.067,14.034,14.034,0,0,1-3.936,4.36l2.757-5.01a1.658,1.658,0,1,0-2.906-1.6l-2.766,5.024a14.06,14.06,0,0,1,1.587-5.674m-5.416-18.685a16.251,16.251,0,0,1,6.825-6.168,16.256,16.256,0,0,1-1.561,9.067,14.032,14.032,0,0,1-3.938,4.361l2.759-5.01a1.659,1.659,0,0,0-2.907-1.6l-2.766,5.024a14.06,14.06,0,0,1,1.587-5.674m-27.268,6.676a16.256,16.256,0,0,1-6.168-6.826,16.25,16.25,0,0,1,9.067,1.562,14.045,14.045,0,0,1,4.361,3.937l-5.01-2.758a1.659,1.659,0,1,0-1.6,2.906l5.01,2.758a14.02,14.02,0,0,1-5.659-1.579m5.417,18.685a16.253,16.253,0,0,1-6.169-6.826,16.249,16.249,0,0,1,9.067,1.562,14.028,14.028,0,0,1,4.361,3.937l-5.01-2.758a1.659,1.659,0,1,0-1.6,2.906l5.024,2.766a14.052,14.052,0,0,1-5.673-1.586m4.945-30.151a16.246,16.246,0,0,1,.465-9.188,16.253,16.253,0,0,1,5.306,7.515,14.019,14.019,0,0,1,.3,5.867l-.537-1.853a1.659,1.659,0,1,0-3.186.924l.537,1.853a14.037,14.037,0,0,1-2.884-5.117" transform="translate(-335.038 -107.134)" fill="#f8efe1"/>
    <path id="Path_5034" data-name="Path 5034" d="M1069.56,232.519l45.05-13.06a1.659,1.659,0,0,0,1.131-2.055l-3.856-13.3A22.158,22.158,0,0,0,1091,188.146a13.888,13.888,0,0,0,2.727-12.818l-2.313-7.978,3.964-1.15a1.659,1.659,0,0,0-.924-3.186L1090,164.3l-7.693-10.341a1.659,1.659,0,0,0-1.793-.6l-17.5,5.074a1.66,1.66,0,0,0-1.193,1.468l-.97,12.853-4.452,1.29a1.659,1.659,0,0,0,.924,3.186l3.965-1.15,2.313,7.979a13.888,13.888,0,0,0,9.159,9.372,22.155,22.155,0,0,0-9.112,24.653l3.855,13.3a1.659,1.659,0,0,0,2.056,1.131m-4.517-71.219,15.291-4.434,6.267,8.423-22.348,6.479Zm1.745,21.837-2.313-7.978,23.753-6.885,2.313,7.978a10.587,10.587,0,0,1-7.213,13.1l-3.438,1a10.588,10.588,0,0,1-13.1-7.213m.047,34.026a18.821,18.821,0,0,1,12.822-23.291l1.156-.335,3.439-1,1.155-.335a18.822,18.822,0,0,1,23.292,12.822l3.394,11.707-41.863,12.136Z" transform="translate(-319.159 -46.369)" fill="#f8efe1"/>
    <path id="Path_5035" data-name="Path 5035" d="M803.993,250.788l9.735-2.822,1.369,4.723a1.659,1.659,0,0,0,2.055,1.131l3.429-.994,6.862,23.672a1.659,1.659,0,0,0,2.056,1.131l11.306-3.278L847.69,298.1a1.659,1.659,0,0,0,3.186-.924l-6.884-23.748,11.3-3.278a1.658,1.658,0,0,0,1.131-2.055l-6.862-23.672,3.429-.994a1.658,1.658,0,0,0,1.131-2.055l-1.369-4.723,9.736-2.823a1.659,1.659,0,1,0-.924-3.186l-9.736,2.822-1.413-4.875a1.66,1.66,0,0,0-2.055-1.131l-16.328,4.733-1.1-3.79L838,226.354l2.611-.757a1.659,1.659,0,1,0-.924-3.186l-1.5.437-4.7-6.313a1.661,1.661,0,0,0-1.793-.6l-11.244,3.26a1.66,1.66,0,0,0-1.192,1.469l-.592,7.845-1.5.436a1.659,1.659,0,0,0,.924,3.186l2.61-.757,7.059-2.047,1.1,3.791-16.329,4.733a1.658,1.658,0,0,0-1.131,2.055l1.413,4.875L803.07,247.6a1.659,1.659,0,0,0,.924,3.187m18.485-28.731,9.032-2.619,3.269,4.394-12.713,3.686Zm-7.438,18.516,32.657-9.467,2.782,9.6-3.429.994a1.658,1.658,0,0,0-1.131,2.055l6.862,23.672-22.612,6.555-6.862-23.672a1.659,1.659,0,0,0-2.056-1.131l-3.429.994Z" transform="translate(-242.536 -65.294)" fill="#f8efe1"/>
    <path id="Path_5036" data-name="Path 5036" d="M572.713,359.516l6.812-12.373a9.544,9.544,0,0,1,11.457-4.431l-11.348,20.614a1.659,1.659,0,1,0,2.906,1.6l11.347-20.612a9.569,9.569,0,0,1,2.385,12.049l-6.811,12.374a1.658,1.658,0,0,0,2.906,1.6l6.812-12.373a12.887,12.887,0,0,0-3.675-16.585l19.416-35.27a7.026,7.026,0,0,0,8.753-3.135l2.605-4.733a1.659,1.659,0,0,0-.653-2.253L614.84,290.05a1.66,1.66,0,0,0-2.254.652l-2.606,4.734a7.035,7.035,0,0,0,2.033,9.074L592.6,339.778a12.884,12.884,0,0,0-15.978,5.765l-6.812,12.374a1.659,1.659,0,1,0,2.906,1.6m40.175-62.48,1.806-3.28,7.879,4.337-1.805,3.28a3.716,3.716,0,0,1-5.041,1.461l-1.377-.758a3.716,3.716,0,0,1-1.461-5.041" transform="translate(-172.283 -87.67)" fill="#f8efe1"/>
    <path id="Path_5037" data-name="Path 5037" d="M723.92,105.336l6.812-12.373a9.544,9.544,0,0,1,11.457-4.431l-11.348,20.614a1.659,1.659,0,1,0,2.906,1.6l11.347-20.612a9.567,9.567,0,0,1,2.386,12.048l-6.811,12.374a1.659,1.659,0,1,0,2.906,1.6l6.811-12.373A12.887,12.887,0,0,0,746.71,87.2l19.416-35.27a7.025,7.025,0,0,0,8.753-3.135l2.605-4.733a1.658,1.658,0,0,0-.653-2.253L766.047,35.87a1.66,1.66,0,0,0-2.254.652l-2.605,4.733a7.033,7.033,0,0,0,2.032,9.074L743.8,85.6a12.884,12.884,0,0,0-15.978,5.765l-6.812,12.374a1.659,1.659,0,1,0,2.906,1.6m40.175-62.481,1.806-3.28,7.879,4.337-1.805,3.28a3.716,3.716,0,0,1-5.041,1.461l-1.377-.758a3.716,3.716,0,0,1-1.461-5.041" transform="translate(-218.017 -10.79)" fill="#f8efe1"/>
    <path id="Path_5038" data-name="Path 5038" d="M96.755,1182.786a21.854,21.854,0,0,0,3.256-.691c2.8-.811,6.577-2.487,8.423-5.84,3.069-5.575-.638-13.186-.8-13.507a1.66,1.66,0,0,0-1.659-.913c-.354.037-8.769.975-11.839,6.551a10.325,10.325,0,0,0-1.2,4.645l-1.367-4.715c1.349-1.9,4.664-7.259,3.206-12.288-1.772-6.113-9.775-8.873-10.116-8.987a1.657,1.657,0,0,0-1.817.527c-.226.278-5.513,6.89-3.74,13,1.458,5.029,7.125,7.785,9.281,8.668l1.368,4.718a10.334,10.334,0,0,0-3.5-3.287c-5.575-3.069-13.186.639-13.506.8a1.66,1.66,0,0,0-.913,1.659c.038.356.974,8.769,6.55,11.839,3.355,1.846,7.445,1.24,10.241.43a21.991,21.991,0,0,0,3.121-1.158l.908-.264,2.549,8.792a10.316,10.316,0,0,0-3.5-3.287c-5.574-3.07-13.186.638-13.506.8a1.658,1.658,0,0,0-.913,1.658c.038.356.974,8.77,6.55,11.839,3.354,1.846,7.446,1.24,10.242.429a21.788,21.788,0,0,0,3.119-1.157l.908-.263,2.549,8.792a10.337,10.337,0,0,0-3.5-3.287c-5.573-3.069-13.186.637-13.506.8a1.659,1.659,0,0,0-.913,1.658c.038.356.974,8.77,6.55,11.839,3.355,1.847,7.446,1.24,10.243.43a21.951,21.951,0,0,0,3.119-1.157l.908-.264,3.693,12.74a1.659,1.659,0,1,0,3.186-.924l-3.693-12.74.908-.263a21.826,21.826,0,0,0,3.254-.691c2.8-.811,6.578-2.487,8.425-5.841,3.069-5.575-.638-13.185-.8-13.506a1.659,1.659,0,0,0-1.658-.913c-.355.036-8.77.976-11.839,6.551a10.329,10.329,0,0,0-1.2,4.645l-2.548-8.789.907-.263a21.835,21.835,0,0,0,3.255-.691c2.8-.811,6.578-2.487,8.424-5.84,3.07-5.575-.638-13.186-.8-13.506a1.66,1.66,0,0,0-1.659-.913c-.354.037-8.77.975-11.839,6.55a10.341,10.341,0,0,0-1.2,4.646l-2.547-8.79Zm.291-12.8c1.669-3.031,6-4.236,8.1-4.656.893,2.313,1.943,6.493.384,9.326-1.666,3.026-5.985,4.233-8.089,4.654-.771-2-2.059-6.3-.393-9.324m-7.731,11.68c-2,.77-6.3,2.06-9.323.393s-4.238-6-4.655-8.1c2.314-.892,6.493-1.943,9.325-.384,3.027,1.667,4.235,5.984,4.654,8.089m5.453,18.808c-2,.769-6.3,2.059-9.324.393s-4.238-6-4.655-8.1c2.314-.892,6.493-1.943,9.325-.384,3.027,1.666,4.234,5.983,4.654,8.089m5.453,18.808c-2,.772-6.3,2.06-9.324.394s-4.233-5.983-4.653-8.089c2-.772,6.3-2.06,9.323-.394s4.234,5.984,4.654,8.089m7.73-11.679c1.669-3.031,6-4.237,8.1-4.656.893,2.312,1.943,6.493.384,9.326-1.666,3.026-5.985,4.233-8.089,4.654-.772-2-2.06-6.3-.394-9.324m-5.453-18.808c1.666-3.027,5.986-4.233,8.089-4.654.771,2,2.059,6.3.393,9.323s-5.987,4.233-8.089,4.655c-.771-2-2.059-6.3-.394-9.324m-20.2-29.147c-.962-3.318,1.237-7.225,2.429-9.011,1.963.873,5.91,3,6.871,6.315s-1.244,7.237-2.434,9.019c-2.267-1-5.965-3.217-6.865-6.323" transform="translate(-21.727 -346.913)" fill="#f8efe1"/>
    <path id="Path_5039" data-name="Path 5039" d="M1253.743,106.629a22.061,22.061,0,0,0,3.257-.691c2.8-.812,6.576-2.487,8.423-5.841,3.069-5.575-.637-13.186-.8-13.507a1.659,1.659,0,0,0-1.658-.913c-.354.037-8.77.975-11.84,6.551a10.332,10.332,0,0,0-1.2,4.645l-1.367-4.715c1.349-1.9,4.665-7.259,3.206-12.288C1250,73.758,1242,71,1241.655,70.882a1.66,1.66,0,0,0-1.817.527c-.225.279-5.512,6.891-3.74,13,1.459,5.029,7.125,7.784,9.281,8.668l1.369,4.717a10.338,10.338,0,0,0-3.5-3.287c-5.574-3.068-13.186.639-13.506.8a1.66,1.66,0,0,0-.913,1.659c.038.356.974,8.769,6.55,11.839,3.355,1.847,7.445,1.241,10.241.43a22.026,22.026,0,0,0,3.121-1.159l.908-.264,2.548,8.792a10.311,10.311,0,0,0-3.5-3.287c-5.575-3.07-13.186.638-13.506.8a1.66,1.66,0,0,0-.913,1.658c.038.357.974,8.769,6.551,11.839,3.354,1.846,7.445,1.241,10.241.429a21.914,21.914,0,0,0,3.12-1.157l.908-.263,2.549,8.792a10.333,10.333,0,0,0-3.5-3.287c-5.574-3.068-13.186.637-13.506.8a1.659,1.659,0,0,0-.913,1.658c.037.356.974,8.77,6.549,11.839,3.355,1.848,7.445,1.24,10.243.43a21.923,21.923,0,0,0,3.119-1.157l.908-.264,3.693,12.74a1.659,1.659,0,1,0,3.186-.924l-3.693-12.74.907-.262a21.991,21.991,0,0,0,3.254-.691c2.8-.811,6.578-2.487,8.425-5.842,3.07-5.575-.638-13.186-.8-13.506a1.661,1.661,0,0,0-1.66-.913c-.355.036-8.77.976-11.839,6.551a10.335,10.335,0,0,0-1.2,4.645l-2.547-8.789.906-.263a21.884,21.884,0,0,0,3.255-.691c2.8-.811,6.578-2.487,8.424-5.841,3.07-5.575-.637-13.185-.8-13.506a1.661,1.661,0,0,0-1.659-.913c-.354.037-8.77.974-11.839,6.55a10.345,10.345,0,0,0-1.2,4.646l-2.547-8.79Zm.292-12.8c1.668-3.031,6-4.236,8.1-4.655.894,2.312,1.943,6.493.384,9.326-1.666,3.025-5.985,4.233-8.089,4.654-.771-2.005-2.059-6.3-.393-9.325m-7.731,11.68c-2,.77-6.3,2.059-9.324.393s-4.237-6-4.655-8.1c2.314-.892,6.493-1.943,9.325-.384,3.027,1.666,4.234,5.985,4.654,8.089m5.452,18.808c-2,.77-6.3,2.06-9.324.393s-4.237-6-4.655-8.1c2.313-.892,6.493-1.943,9.325-.384,3.027,1.666,4.234,5.983,4.654,8.089m5.453,18.808c-2,.771-6.3,2.061-9.324.394s-4.233-5.983-4.653-8.089c2-.772,6.3-2.06,9.323-.394s4.235,5.983,4.654,8.089m7.73-11.679c1.67-3.031,6-4.237,8.1-4.655.893,2.312,1.943,6.493.384,9.326-1.666,3.025-5.984,4.231-8.088,4.654-.773-2.005-2.06-6.3-.395-9.325m-5.453-18.808c1.667-3.027,5.986-4.233,8.089-4.654.771,2,2.06,6.3.393,9.323s-5.987,4.233-8.088,4.655c-.772-2.005-2.06-6.3-.395-9.325m-20.2-29.147c-.962-3.317,1.237-7.225,2.428-9.011,1.963.873,5.91,3,6.871,6.315s-1.244,7.237-2.434,9.019c-2.267-1-5.965-3.217-6.864-6.323" transform="translate(-371.672 -21.416)" fill="#f8efe1"/>
    <path id="Path_5040" data-name="Path 5040" d="M371.386,430.585l2.319,8a1.659,1.659,0,1,0,3.187-.924l-2.32-8a25.771,25.771,0,0,0,9.51-38.686l-2.319-3.1a1.659,1.659,0,0,0-2.955.673l-.808,4.1-7.911-27.29a15.256,15.256,0,0,0-29.3,8.5l7.911,27.29-2.875-3.031a1.642,1.642,0,0,0-1.758-.422,1.659,1.659,0,0,0-1.1,1.434l-.3,3.859a25.771,25.771,0,0,0,28.726,27.6m9.955-37.735.085.113a22.459,22.459,0,0,1-6.574,32.8Zm-37.371-19.92a11.938,11.938,0,0,1,22.932-6.648l9.7,33.459-5.031,25.519-17.9-18.872Zm2,30.312.011-.141,23.085,24.338a22.458,22.458,0,0,1-23.1-24.2" transform="translate(-102.891 -107.18)" fill="#f8efe1"/>
    <path id="Path_5041" data-name="Path 5041" d="M355.332,381.2a2.1,2.1,0,1,0,2.607,1.435,2.1,2.1,0,0,0-2.607-1.435" transform="translate(-107.015 -115.276)" fill="#f8efe1"/>
    <path id="Path_5042" data-name="Path 5042" d="M362.719,406.678a2.1,2.1,0,1,0,2.607,1.435,2.1,2.1,0,0,0-2.607-1.435" transform="translate(-109.249 -122.982)" fill="#f8efe1"/>
    <path id="Path_5043" data-name="Path 5043" d="M373.691,394.069a2.1,2.1,0,1,0-2.607-1.435,2.1,2.1,0,0,0,2.607,1.435" transform="translate(-112.214 -117.946)" fill="#f8efe1"/>
    <path id="Path_5044" data-name="Path 5044" d="M381.077,419.546a2.1,2.1,0,1,0-2.607-1.435,2.1,2.1,0,0,0,2.607,1.435" transform="translate(-114.448 -125.652)" fill="#f8efe1"/>
    <path id="Path_5045" data-name="Path 5045" d="M700.754,742.394a1.658,1.658,0,0,0-2.253.653l-8.042,14.607a12.355,12.355,0,0,0,21.647,11.917l8.042-14.606a1.658,1.658,0,0,0-.654-2.253l-7.917-4.359,23.275-42.281.315.173a7.026,7.026,0,0,0,9.547-2.767l3.645-6.621a1.659,1.659,0,0,0-.654-2.253l-12.941-7.125a1.658,1.658,0,0,0-2.253.653l-3.645,6.62a7.028,7.028,0,0,0,2.768,9.547l.314.173-23.275,42.28Zm31.017-46.042,2.845-5.167,10.036,5.525-2.845,5.167a3.716,3.716,0,0,1-5.041,1.461l-3.534-1.945a3.716,3.716,0,0,1-1.461-5.041M709.2,767.971a9.038,9.038,0,1,1-15.835-8.718l7.242-13.154,15.834,8.718Z" transform="translate(-208.375 -207.877)" fill="#f8efe1"/>
    <path id="Path_5046" data-name="Path 5046" d="M249.059,207.412a1.658,1.658,0,0,0-2.253.653l-8.042,14.607a12.356,12.356,0,0,0,21.647,11.917l8.042-14.608a1.658,1.658,0,0,0-.653-2.252l-7.918-4.36,23.275-42.279.315.172a7.026,7.026,0,0,0,9.547-2.768l3.645-6.62a1.659,1.659,0,0,0-.654-2.253L283.069,152.5a1.658,1.658,0,0,0-2.253.652l-3.645,6.621a7.028,7.028,0,0,0,2.768,9.547l.314.173-23.275,42.28Zm31.017-46.042,2.845-5.167,10.036,5.525-2.845,5.167a3.716,3.716,0,0,1-5.041,1.461l-3.534-1.945a3.717,3.717,0,0,1-1.461-5.041m-22.571,71.618a9.038,9.038,0,1,1-15.835-8.717l7.242-13.154,15.834,8.719Z" transform="translate(-71.755 -46.065)" fill="#f8efe1"/>
    <path id="Path_5047" data-name="Path 5047" d="M958.482,1298.188a1.658,1.658,0,0,0-2.253.653l-8.042,14.607a12.356,12.356,0,0,0,21.647,11.917l8.042-14.607a1.658,1.658,0,0,0-.654-2.253l-7.917-4.359,23.275-42.28.315.172a7.026,7.026,0,0,0,9.546-2.767l3.645-6.621a1.659,1.659,0,0,0-.654-2.253l-12.941-7.125a1.658,1.658,0,0,0-2.253.653l-3.645,6.62a7.029,7.029,0,0,0,2.768,9.547l.314.173-23.275,42.28Zm31.017-46.042,2.845-5.167,10.036,5.525-2.844,5.167a3.716,3.716,0,0,1-5.041,1.461l-3.534-1.945a3.716,3.716,0,0,1-1.461-5.041m-22.571,71.619a9.038,9.038,0,1,1-15.835-8.718l7.242-13.154,15.834,8.718Z" transform="translate(-286.329 -375.984)" fill="#f8efe1"/>
    <path id="Path_5048" data-name="Path 5048" d="M1040.11,861.533l-19.258,5.583-1.024-3.532c1.13-2.1,4.349-8.949,2.411-15.634-2.276-7.851-10.705-12.1-11.062-12.279a1.659,1.659,0,0,0-2.153.624c-.208.341-5.057,8.441-2.781,16.292,1.938,6.685,8.32,10.748,10.4,11.921l1.024,3.532-19.26,5.584a1.659,1.659,0,0,0-1.131,2.055l2.687,9.268a1.659,1.659,0,0,0,2.055,1.132l2.054-.6,10.753,22.618a1.658,1.658,0,0,0,1.959.881l26.714-7.744a1.659,1.659,0,0,0,1.184-1.793l-3.011-24.862,2.053-.6a1.659,1.659,0,0,0,1.131-2.055l-2.686-9.268a1.66,1.66,0,0,0-2.056-1.131m-30.682-9.87c-1.362-4.7.54-9.777,1.68-12.2,2.259,1.437,6.581,4.709,7.944,9.409a16.438,16.438,0,0,1-.672,9.719l-1.438-4.96a1.659,1.659,0,0,0-3.186.924l1.438,4.961a16.436,16.436,0,0,1-5.766-7.853m31.788,46.78-24,6.959-9.915-20.856,31.142-9.028Zm-.013-27.181-1.814.526L1004.5,881.9l-1.814.526-1.763-6.081,38.518-11.166Z" transform="translate(-301.618 -252.71)" fill="#f8efe1"/>
    <path id="Path_5049" data-name="Path 5049" d="M1042.9,26.038l-19.258,5.583-1.024-3.532c1.13-2.1,4.349-8.949,2.411-15.634C1022.75,4.6,1014.322.353,1013.964.176a1.659,1.659,0,0,0-2.153.624c-.208.341-5.057,8.441-2.782,16.292,1.938,6.685,8.32,10.748,10.4,11.921l1.024,3.532-19.26,5.584a1.659,1.659,0,0,0-1.131,2.055l2.687,9.268a1.66,1.66,0,0,0,2.055,1.131l2.054-.6,10.753,22.618a1.658,1.658,0,0,0,1.959.881l26.713-7.744a1.658,1.658,0,0,0,1.185-1.793l-3.011-24.862,2.052-.6a1.658,1.658,0,0,0,1.131-2.055l-2.686-9.268a1.66,1.66,0,0,0-2.056-1.131m-30.682-9.869c-1.363-4.7.54-9.777,1.68-12.2,2.259,1.437,6.581,4.71,7.944,9.409a16.438,16.438,0,0,1-.672,9.719l-1.438-4.96a1.659,1.659,0,1,0-3.186.924l1.438,4.961a16.436,16.436,0,0,1-5.766-7.853M1044,62.949l-24,6.959-9.915-20.856,31.142-9.028Zm-.013-27.181-1.814.526-34.89,10.114-1.814.526-1.763-6.081,38.518-11.166Z" transform="translate(-302.462 -0.004)" fill="#f8efe1"/>
    <path id="Path_5050" data-name="Path 5050" d="M388.428,627.823l4.15-7.538,3.873,2.132-4.15,7.538a1.659,1.659,0,1,0,2.906,1.6l4.15-7.538,3.873,2.132-4.15,7.538a1.659,1.659,0,1,0,2.906,1.6l4.15-7.538,3.873,2.132-4.15,7.538a1.659,1.659,0,0,0,2.907,1.6l4.15-7.538,3.873,2.132-4.15,7.538a1.659,1.659,0,1,0,2.907,1.6l4.95-8.991a1.659,1.659,0,0,0-.653-2.253l-12.105-6.664L429.3,585.668l.29.16a8.112,8.112,0,0,0,11.006-3.19l4.011-7.285a1.659,1.659,0,0,0-.654-2.253l-14.778-8.135a1.657,1.657,0,0,0-2.252.653l-4.011,7.285a8.113,8.113,0,0,0,3.191,11.006l.29.16-21.565,39.174-5.325-2.931h0l-6.777-3.731a1.658,1.658,0,0,0-2.253.653l-4.95,8.991a1.659,1.659,0,0,0,2.906,1.6M425.82,574.5l3.211-5.832L440.9,575.2l-3.21,5.833a4.791,4.791,0,0,1-6.5,1.884L427.7,581a4.791,4.791,0,0,1-1.885-6.5" transform="translate(-116.543 -170.821)" fill="#f8efe1"/>
    <path id="Path_5051" data-name="Path 5051" d="M1066.927,1096.976l4.15-7.538,3.873,2.132-4.15,7.538a1.659,1.659,0,0,0,2.907,1.6l4.15-7.538,3.873,2.132-4.15,7.538a1.659,1.659,0,1,0,2.906,1.6l4.15-7.538,3.873,2.132-4.15,7.538a1.659,1.659,0,0,0,2.907,1.6l4.15-7.538,3.873,2.132-4.15,7.538a1.659,1.659,0,1,0,2.906,1.6l4.95-8.991a1.658,1.658,0,0,0-.653-2.253l-12.1-6.664,21.566-39.174.29.16a8.112,8.112,0,0,0,11.006-3.191l4.011-7.285a1.659,1.659,0,0,0-.654-2.253l-14.778-8.135a1.657,1.657,0,0,0-2.252.653l-4.011,7.285a8.113,8.113,0,0,0,3.191,11.006l.29.16-21.565,39.174-5.325-2.931h0l-6.777-3.731a1.658,1.658,0,0,0-2.253.653l-4.95,8.991a1.659,1.659,0,1,0,2.906,1.6m37.392-53.321,3.211-5.832,11.871,6.535-3.21,5.832a4.791,4.791,0,0,1-6.5,1.885l-3.487-1.92a4.792,4.792,0,0,1-1.885-6.5" transform="translate(-321.764 -312.722)" fill="#f8efe1"/>
    <path id="Path_5052" data-name="Path 5052" d="M851.474,1207.37l-34.2-3.405a5.141,5.141,0,0,1-4.712-3.793l-7-25.865a5.146,5.146,0,0,1,5.225-6.483l30.858,3.241Z" transform="translate(-243.599 -353.224)" fill="none" stroke="#f8efe1" stroke-linecap="round" stroke-linejoin="round" stroke-width="4"/>
    <path id="Path_5053" data-name="Path 5053" d="M895.009,1180.264,867.2,1200.452l-9.827-36.306,25.012-18.362a5.145,5.145,0,0,1,7.781,2.962l7,25.866A5.141,5.141,0,0,1,895.009,1180.264Z" transform="translate(-259.323 -346.306)" fill="none" stroke="#f8efe1" stroke-linecap="round" stroke-linejoin="round" stroke-width="4"/>
    <path id="Path_5054" data-name="Path 5054" d="M816.811,1144.067a13.722,13.722,0,1,0-16.831-9.66A13.722,13.722,0,0,0,816.811,1144.067Z" transform="translate(-241.819 -337.883)" fill="none" stroke="#f8efe1" stroke-linecap="round" stroke-linejoin="round" stroke-width="4"/>
    <path id="Path_5055" data-name="Path 5055" d="M869.979,1129.676a13.722,13.722,0,1,0-16.83-9.66A13.722,13.722,0,0,0,869.979,1129.676Z" transform="translate(-257.9 -333.53)" fill="none" stroke="#f8efe1" stroke-linecap="round" stroke-linejoin="round" stroke-width="4"/>
    <path id="Path_5056" data-name="Path 5056" d="M838.18,1128.991a5.489,5.489,0,0,1,10.6-2.868" transform="translate(-253.46 -339.386)" fill="none" stroke="#f8efe1" stroke-linecap="round" stroke-linejoin="round" stroke-width="4"/>
    <line id="Line_20" data-name="Line 20" x1="7.947" y2="2.151" transform="translate(621.739 777.165)" fill="none" stroke="#f8efe1" stroke-linecap="round" stroke-linejoin="round" stroke-width="4"/>
    <line id="Line_21" data-name="Line 21" x1="7.947" y2="2.151" transform="translate(550.214 796.524)" fill="none" stroke="#f8efe1" stroke-linecap="round" stroke-linejoin="round" stroke-width="4"/>
    <line id="Line_22" data-name="Line 22" y1="4.8" x2="7.23" transform="translate(613.951 819.271)" fill="none" stroke="#f8efe1" stroke-linecap="round" stroke-linejoin="round" stroke-width="4"/>
    <path id="Path_5057" data-name="Path 5057" d="M116.9,280.067,63.574,301.92a8.235,8.235,0,0,1-6.244-15.241l48.249-19.771a5.49,5.49,0,0,0,3-7.16L87.765,208.959a5.487,5.487,0,0,0-7.16-3L31.364,226.139a7.158,7.158,0,0,0-3.91,9.345L52.834,297.42" transform="translate(-8.142 -62.174)" fill="none" stroke="#f8efe1" stroke-linecap="round" stroke-linejoin="round" stroke-width="4"/>
    <line id="Line_23" data-name="Line 23" x2="6.244" y2="15.237" transform="translate(97.439 204.738)" fill="none" stroke="#f8efe1" stroke-linecap="round" stroke-linejoin="round" stroke-width="4"/>
    <path id="Path_5058" data-name="Path 5058" d="M89.147,253.929l7.631,18.623-20.316,8.324-7.631-18.623" transform="translate(-20.819 -76.807)" fill="none" stroke="#f8efe1" stroke-linecap="round" stroke-linejoin="round" stroke-width="4"/>
    <path id="Path_5059" data-name="Path 5059" d="M63.539,266.589l11.074-16.4,19.4,3.914" transform="translate(-19.218 -75.675)" fill="none" stroke="#f8efe1" stroke-linecap="round" stroke-linejoin="round" stroke-width="4"/>
    <path id="Path_5060" data-name="Path 5060" d="M1292.787,406.71l.98,3.525a3.311,3.311,0,0,0,2.946,2.549l26.435.675-8.659-31.14-25.146-2.02a2.99,2.99,0,0,0-2.764,4.088l1.808,6.5" transform="translate(-389.079 -115.029)" fill="none" stroke="#f8efe1" stroke-linecap="round" stroke-linejoin="round" stroke-width="4"/>
    <path id="Path_5061" data-name="Path 5061" d="M1357.761,385.769l1.134,4.08a3.294,3.294,0,0,1-1.2,3.7l-22.348,14.217-8.658-31.14,20.54-14.724a2.99,2.99,0,0,1,4.478,2.074l1.948,7.009" transform="translate(-401.273 -109.338)" fill="none" stroke="#f8efe1" stroke-linecap="round" stroke-linejoin="round" stroke-width="4"/>
    <path id="Path_5062" data-name="Path 5062" d="M1295.271,406.478c.49,1.763-1.1,3.725-3.535,4.374-4.864,1.33-9.581-.435-10.538-3.944l-.883-3.173c-.973-3.5,2.208-7.424,7.062-8.751,2.429-.675,4.789.218,5.264,1.954Z" transform="translate(-387.194 -119.403)" fill="none" stroke="#f8efe1" stroke-linecap="round" stroke-linejoin="round" stroke-width="4"/>
    <path id="Path_5063" data-name="Path 5063" d="M1357.591,389.482c.49,1.763,2.867,2.621,5.293,1.92,4.859-1.373,8-5.322,7-8.822l-.882-3.173c-.973-3.5-5.731-5.216-10.59-3.842-2.429.675-4,2.661-3.5,4.392Z" transform="translate(-409.783 -113.454)" fill="none" stroke="#f8efe1" stroke-linecap="round" stroke-linejoin="round" stroke-width="4"/>
    <path id="Path_5064" data-name="Path 5064" d="M1310.833,342.949a15.094,15.094,0,1,0-18.586-10.5A15.094,15.094,0,0,0,1310.833,342.949Z" transform="translate(-390.688 -94.767)" fill="none" stroke="#f8efe1" stroke-linecap="round" stroke-linejoin="round" stroke-width="4"/>
    <path id="Path_5065" data-name="Path 5065" d="M906.058,503.029c-3.4-5.405-17.274-9.129-38.415-4.65a5.489,5.489,0,0,1-6.368-4.045l-12.266-47.289a5.489,5.489,0,0,1,4.314-6.79c13.873-2.842,24.439-2.086,30.918.316" transform="translate(-256.739 -132.611)" fill="none" stroke="#f8efe1" stroke-linecap="round" stroke-linejoin="round" stroke-width="4"/>
    <path id="Path_5066" data-name="Path 5066" d="M930.874,504.674c.342-6.376,10.658-16.374,31.312-22.736a5.49,5.49,0,0,0,3.6-6.631l-8.157-31.446" transform="translate(-281.555 -134.254)" fill="none" stroke="#f8efe1" stroke-linecap="round" stroke-linejoin="round" stroke-width="4"/>
    <path id="Path_5067" data-name="Path 5067" d="M889.228,460.862a89.476,89.476,0,0,0-20.937.516" transform="translate(-262.626 -139.28)" fill="none" stroke="#f8efe1" stroke-linecap="round" stroke-linejoin="round" stroke-width="4"/>
    <path id="Path_5068" data-name="Path 5068" d="M894.253,480.238a91.566,91.566,0,0,0-20.937.516" transform="translate(-264.145 -145.145)" fill="none" stroke="#f8efe1" stroke-linecap="round" stroke-linejoin="round" stroke-width="4"/>
    <path id="Path_5069" data-name="Path 5069" d="M899.5,500.779a92.4,92.4,0,0,0-21.118.564" transform="translate(-265.678 -151.362)" fill="none" stroke="#f8efe1" stroke-linecap="round" stroke-linejoin="round" stroke-width="4"/>
    <line id="Line_24" data-name="Line 24" x2="11.714" y2="45.16" transform="translate(637.605 325.26)" fill="none" stroke="#f8efe1" stroke-linecap="round" stroke-linejoin="round" stroke-width="4"/>
    <line id="Line_25" data-name="Line 25" x2="1.378" y2="5.313" transform="translate(647.243 285.902)" fill="none" stroke="#f8efe1" stroke-linecap="round" stroke-linejoin="round" stroke-width="4"/>
    <line id="Line_26" data-name="Line 26" x2="4.733" y2="2.783" transform="translate(632.472 299.071)" fill="none" stroke="#f8efe1" stroke-linecap="round" stroke-linejoin="round" stroke-width="4"/>
    <line id="Line_27" data-name="Line 27" x1="2.783" y2="4.733" transform="translate(663.769 290.231)" fill="none" stroke="#f8efe1" stroke-linecap="round" stroke-linejoin="round" stroke-width="4"/>
    <line id="Line_28" data-name="Line 28" x2="1.378" y2="5.313" transform="translate(658.268 328.406)" fill="none" stroke="#f8efe1" stroke-linecap="round" stroke-linejoin="round" stroke-width="4"/>
    <path id="Path_5070" data-name="Path 5070" d="M943.638,440.424a10.977,10.977,0,1,0-13.565,13.287l1.76,6.786,10.626-2.756-1.76-6.786A10.925,10.925,0,0,0,943.638,440.424Z" transform="translate(-278.877 -130.713)" fill="none" stroke="#f8efe1" stroke-linecap="round" stroke-linejoin="round" stroke-width="4"/>
    <path id="Path_5071" data-name="Path 5071" d="M59.229,973.7c-3.4-5.405-17.274-9.129-38.415-4.65a5.489,5.489,0,0,1-6.368-4.045L2.179,917.72a5.489,5.489,0,0,1,4.314-6.79c13.873-2.843,24.439-2.086,30.918.316" transform="translate(-0.605 -274.972)" fill="none" stroke="#f8efe1" stroke-linecap="round" stroke-linejoin="round" stroke-width="4"/>
    <path id="Path_5072" data-name="Path 5072" d="M84.045,975.348c.342-6.375,10.658-16.374,31.312-22.736a5.489,5.489,0,0,0,3.6-6.631L110.8,914.535" transform="translate(-25.42 -276.615)" fill="none" stroke="#f8efe1" stroke-linecap="round" stroke-linejoin="round" stroke-width="4"/>
    <path id="Path_5073" data-name="Path 5073" d="M42.4,931.535a89.48,89.48,0,0,0-20.937.516" transform="translate(-6.491 -281.641)" fill="none" stroke="#f8efe1" stroke-linecap="round" stroke-linejoin="round" stroke-width="4"/>
    <path id="Path_5074" data-name="Path 5074" d="M47.424,950.912a91.57,91.57,0,0,0-20.937.516" transform="translate(-8.011 -287.506)" fill="none" stroke="#f8efe1" stroke-linecap="round" stroke-linejoin="round" stroke-width="4"/>
    <path id="Path_5075" data-name="Path 5075" d="M52.673,971.453a92.4,92.4,0,0,0-21.118.564" transform="translate(-9.544 -293.723)" fill="none" stroke="#f8efe1" stroke-linecap="round" stroke-linejoin="round" stroke-width="4"/>
    <line id="Line_29" data-name="Line 29" x2="11.714" y2="45.16" transform="translate(46.91 653.572)" fill="none" stroke="#f8efe1" stroke-linecap="round" stroke-linejoin="round" stroke-width="4"/>
    <line id="Line_30" data-name="Line 30" x2="1.378" y2="5.313" transform="translate(56.548 614.214)" fill="none" stroke="#f8efe1" stroke-linecap="round" stroke-linejoin="round" stroke-width="4"/>
    <line id="Line_31" data-name="Line 31" x2="4.733" y2="2.783" transform="translate(41.777 627.383)" fill="none" stroke="#f8efe1" stroke-linecap="round" stroke-linejoin="round" stroke-width="4"/>
    <line id="Line_32" data-name="Line 32" x1="2.783" y2="4.733" transform="translate(73.074 618.543)" fill="none" stroke="#f8efe1" stroke-linecap="round" stroke-linejoin="round" stroke-width="4"/>
    <line id="Line_33" data-name="Line 33" x2="1.378" y2="5.313" transform="translate(67.573 656.718)" fill="none" stroke="#f8efe1" stroke-linecap="round" stroke-linejoin="round" stroke-width="4"/>
    <path id="Path_5076" data-name="Path 5076" d="M96.809,911.1a10.977,10.977,0,1,0-13.565,13.287L85,931.171l10.626-2.756-1.76-6.786A10.925,10.925,0,0,0,96.809,911.1Z" transform="translate(-22.743 -273.074)" fill="none" stroke="#f8efe1" stroke-linecap="round" stroke-linejoin="round" stroke-width="4"/>
    <path id="Path_5077" data-name="Path 5077" d="M533.622,125.357l-5.9-23.693a4.889,4.889,0,0,0-6.591-3.366,51.928,51.928,0,0,0-22.011,17.484,4.969,4.969,0,0,1-5.919,1.475,51.9,51.9,0,0,0-27.639-5.119,4.888,4.888,0,0,0-4.242,6.064l10.71,43a4.862,4.862,0,0,0,5.277,3.659,47.711,47.711,0,0,1,18.573,1.221" transform="translate(-139.486 -29.625)" fill="none" stroke="#f8efe1" stroke-linecap="round" stroke-linejoin="round" stroke-width="4"/>
    <line id="Line_34" data-name="Line 34" x2="2.235" y2="8.974" transform="translate(356.927 87.909)" fill="none" stroke="#f8efe1" stroke-linecap="round" stroke-linejoin="round" stroke-width="4"/>
    <path id="Path_5078" data-name="Path 5078" d="M495.348,140.011a48.478,48.478,0,0,0-13.062-2.4" transform="translate(-145.873 -41.626)" fill="none" stroke="#f8efe1" stroke-linecap="round" stroke-linejoin="round" stroke-width="4"/>
    <path id="Path_5079" data-name="Path 5079" d="M498.4,156.922a33.7,33.7,0,0,0-15.769-2.423" transform="translate(-145.979 -46.695)" fill="none" stroke="#f8efe1" stroke-linecap="round" stroke-linejoin="round" stroke-width="4"/>
    <path id="Path_5080" data-name="Path 5080" d="M528.175,130.712a48.45,48.45,0,0,1,10.413-8.241" transform="translate(-159.753 -37.046)" fill="none" stroke="#f8efe1" stroke-linecap="round" stroke-linejoin="round" stroke-width="4"/>
    <path id="Path_5081" data-name="Path 5081" d="M540.857,181.706a19.552,19.552,0,1,0-23.7-14.247A19.552,19.552,0,0,0,540.857,181.706Z" transform="translate(-156.245 -43.309)" fill="none" stroke="#f8efe1" stroke-linecap="round" stroke-linejoin="round" stroke-width="4"/>
    <line id="Line_35" data-name="Line 35" x1="12.863" y1="7.734" transform="translate(396.646 129.501)" fill="none" stroke="#f8efe1" stroke-linecap="round" stroke-linejoin="round" stroke-width="4"/>
    <line id="Line_36" data-name="Line 36" x1="2.363" y1="9.486" transform="translate(378.706 114.683)" fill="none" stroke="#f8efe1" stroke-linecap="round" stroke-linejoin="round" stroke-width="4"/>
    <line id="Line_37" data-name="Line 37" y1="2.363" x2="9.486" transform="translate(373.963 113.501)" fill="none" stroke="#f8efe1" stroke-linecap="round" stroke-linejoin="round" stroke-width="4"/>
    <path id="Path_5082" data-name="Path 5082" d="M662.235,491.228c-6.348,1.913-8.444,12.672-8.37,22.843l-15.719-22.165a3.794,3.794,0,0,0-6.887,2.074l-.551,17.473a21.876,21.876,0,1,0-4.8,40.842l5.921,19.653a1.34,1.34,0,1,0,2.566-.774l-5.921-19.653c.336-.123.668-.253,1-.393a3.785,3.785,0,0,0,4.879,3.476l16.072-4.842,4.581,15.2a1.34,1.34,0,1,0,2.566-.774l-4.581-15.2,16.073-4.843a3.8,3.8,0,0,0,1.8-1.188,44.087,44.087,0,0,0,5.179-1.259l4.676,15.518a1.34,1.34,0,0,0,2.566-.774l-4.676-15.517c7.75-2.376,15.135-5.386,10.981-19.174-3.677-12.2-17.192-33.588-27.355-30.526M625.75,542.476l4.073-13.388a1.34,1.34,0,1,0-2.564-.78l-2.9,9.542-2.18-7.235a1.34,1.34,0,0,0-2.566.774l2.179,7.233-7.69-6.349a1.34,1.34,0,1,0-1.707,2.066l10.791,8.91,1.945,6.456a19.187,19.187,0,1,1,5.484-35.252l-1.063,33.682a19.249,19.249,0,0,1-1.851.813Zm26.466,3.947-2.111-7.008,4.073-13.387a1.34,1.34,0,1,0-2.564-.78l-2.9,9.541-3.361-11.154a1.34,1.34,0,1,0-2.566.772l2.18,7.235-7.691-6.35a1.34,1.34,0,0,0-1.706,2.067l10.791,8.909,1.065,3.535,0,.006,2.226,7.388-16.072,4.843a1.113,1.113,0,0,1-1.434-1.1l1.173-37.161c0-.038,0-.078,0-.117l.618-19.6a1.114,1.114,0,0,1,2.022-.609l32.916,46.416a1.113,1.113,0,0,1-.587,1.71Zm25.621-8.061-3.2-10.616,4.073-13.389a1.34,1.34,0,1,0-2.563-.779l-2.9,9.541-2.18-7.233a1.34,1.34,0,1,0-2.566.774l2.18,7.234-7.691-6.349a1.34,1.34,0,1,0-1.706,2.066l10.791,8.909,3.2,10.614c-1.166.345-2.369.679-3.541.938a3.8,3.8,0,0,0-.668-1.751L656.69,518.054c-.824-12.729,1.814-22.9,6.319-24.261,6.985-2.1,19.86,14.944,24.016,28.734,3.424,11.365-1.441,13.469-9.187,15.835" transform="translate(-181.179 -148.3)" fill="#f8efe1"/>
    <path id="Path_5083" data-name="Path 5083" d="M1251.323,1203.177c-6.348,1.913-8.444,12.672-8.371,22.843l-15.719-22.166a3.794,3.794,0,0,0-6.887,2.075l-.551,17.472a21.876,21.876,0,1,0-4.8,40.842l5.921,19.653a1.34,1.34,0,1,0,2.566-.773l-5.921-19.653c.336-.123.668-.253,1-.393a3.784,3.784,0,0,0,4.879,3.477l16.073-4.842,4.581,15.2a1.34,1.34,0,0,0,2.566-.774l-4.581-15.2,16.073-4.843a3.8,3.8,0,0,0,1.8-1.188,44.065,44.065,0,0,0,5.179-1.258l4.676,15.518a1.34,1.34,0,0,0,2.566-.774l-4.676-15.517c7.75-2.376,15.135-5.386,10.98-19.174-3.677-12.2-17.191-33.588-27.354-30.526m-36.486,51.249,4.073-13.389a1.34,1.34,0,1,0-2.564-.78l-2.9,9.542-2.18-7.234a1.34,1.34,0,1,0-2.566.774l2.179,7.233-7.69-6.35a1.34,1.34,0,0,0-1.707,2.067l10.791,8.91,1.946,6.456a19.187,19.187,0,1,1,5.484-35.252l-1.063,33.682a19.237,19.237,0,0,1-1.851.813Zm26.466,3.946-2.111-7.008,4.073-13.387a1.34,1.34,0,0,0-2.564-.78l-2.9,9.541-3.361-11.154a1.34,1.34,0,1,0-2.566.773l2.18,7.234-7.691-6.35a1.34,1.34,0,0,0-1.706,2.067l10.791,8.909,1.065,3.535,0,.006,2.226,7.388-16.072,4.842a1.113,1.113,0,0,1-1.434-1.1l1.173-37.16c0-.039.006-.078,0-.117l.618-19.6a1.114,1.114,0,0,1,2.022-.609l32.916,46.416a1.112,1.112,0,0,1-.586,1.71Zm25.621-8.061-3.2-10.616,4.073-13.388a1.34,1.34,0,0,0-2.563-.781l-2.9,9.542-2.18-7.234a1.34,1.34,0,1,0-2.566.773l2.18,7.234-7.691-6.35a1.34,1.34,0,1,0-1.706,2.067l10.791,8.909,3.2,10.614c-1.166.345-2.369.679-3.541.938a3.8,3.8,0,0,0-.667-1.751L1245.777,1230c-.824-12.728,1.813-22.9,6.319-24.26,6.985-2.1,19.86,14.943,24.016,28.734,3.424,11.365-1.441,13.468-9.187,15.835" transform="translate(-359.356 -363.638)" fill="#f8efe1"/>
    <path id="Path_5084" data-name="Path 5084" d="M1294.165,1053.38l30.908-8.78,14.663-4.165,8.2-2.328-8.861-31.2-5.917-3.364-4.327-15.234-9.516,2.7,1.578,5.557-16.467-9.362-19.119,34.972Zm32.651-11.968-5.762-20.286,9.761-2.772,5.762,20.286Zm-4.346-48.6,4.614-1.311,2.911,10.248-5.947-3.381Zm-34.423,29.706,17.376-31.783,31.49,17.9,7.861,27.672-5.746,1.631-6.47-22.779-14.664,4.165,6.47,22.779-28.457,8.083Z" transform="translate(-388.756 -298.597)" fill="#f8efe1"/>
    <path id="Path_5085" data-name="Path 5085" d="M1301.748,1053.563l18.692-5.309-3.682-12.964-18.692,5.31Zm-.523-11.167,13.79-3.917,2.266,7.978-13.79,3.917Z" transform="translate(-392.616 -313.139)" fill="#f8efe1"/>
    <path id="Path_5086" data-name="Path 5086" d="M1336.421,955.978l-1.1,1.048c-.271.257-6.627,6.357-6.14,11.977a7.053,7.053,0,0,0,2.674,5.248,6.449,6.449,0,0,0,2.881,1.219l.075.862a1.294,1.294,0,0,0,1.382,1.187,1.25,1.25,0,0,0,.243-.043,1.28,1.28,0,0,0,.915-1.348l-.075-.867a6.358,6.358,0,0,0,2.631-1.657,6.963,6.963,0,0,0,1.732-5.6c-.392-4.518-4.216-10.477-4.378-10.729Zm2.674,12.226a4.47,4.47,0,0,1-1.043,3.6,3.709,3.709,0,0,1-1.013.749l-.476-5.49a1.3,1.3,0,0,0-1.383-1.187,1.275,1.275,0,0,0-1.159,1.392l.476,5.49a3.77,3.77,0,0,1-1.129-.578,4.524,4.524,0,0,1-1.65-3.387c-.256-2.951,2.391-6.634,4.246-8.721,1.094,1.922,2.9,5.445,3.131,8.128" transform="translate(-402.018 -289.15)" fill="#f8efe1"/>
    <path id="Path_5087" data-name="Path 5087" d="M1279.449,1006.984a5.543,5.543,0,1,0,3.792-6.936,5.6,5.6,0,0,0-3.792,6.936m4.5-4.443a3.045,3.045,0,1,1-2.049,3.747,3.023,3.023,0,0,1,2.049-3.747" transform="translate(-386.919 -302.417)" fill="#f8efe1"/>
    <path id="Path_5088" data-name="Path 5088" d="M1284.668,987.037a4.293,4.293,0,1,0,2.937-5.371,4.333,4.333,0,0,0-2.937,5.371m5.806-1.649a1.744,1.744,0,1,1-2.162-1.23,1.761,1.761,0,0,1,2.162,1.23" transform="translate(-388.513 -296.871)" fill="#f8efe1"/>
    <path id="Path_5089" data-name="Path 5089" d="M1271.3,997.239a4.745,4.745,0,1,0-5.785-3.29,4.71,4.71,0,0,0,5.785,3.29m-1.885-6.636a2.154,2.154,0,1,1-1.449,2.65,2.138,2.138,0,0,1,1.449-2.65" transform="translate(-382.715 -298.816)" fill="#f8efe1"/>
    <path id="Path_5090" data-name="Path 5090" d="M352.511,1318.373a73.042,73.042,0,0,0-24.744,2.119,5.489,5.489,0,0,1-6.469-3.882l-13.469-46.976a5.488,5.488,0,0,1,4.14-6.9c23.278-5.361,36.923.753,38.435,6.026" transform="translate(-93.041 -381.306)" fill="none" stroke="#f8efe1" stroke-linecap="round" stroke-linejoin="round" stroke-width="4"/>
    <path id="Path_5091" data-name="Path 5091" d="M413.751,1268.205l-8.3-28.942a5.49,5.49,0,0,0-7.166-3.656c-22.582,7.788-30.914,20.2-29.4,25.476" transform="translate(-111.522 -373.627)" fill="none" stroke="#f8efe1" stroke-linecap="round" stroke-linejoin="round" stroke-width="4"/>
    <line id="Line_38" data-name="Line 38" x2="5.331" y2="18.46" transform="translate(257.363 887.458)" fill="none" stroke="#f8efe1" stroke-linecap="round" stroke-linejoin="round" stroke-width="4"/>
    <path id="Path_5092" data-name="Path 5092" d="M384.956,1309.858l5.85,20.4a5.489,5.489,0,0,0,6.789,3.763l21.1-6.051a5.489,5.489,0,0,0,3.763-6.789l-5.85-20.4" transform="translate(-116.435 -393.441)" fill="none" stroke="#f8efe1" stroke-linecap="round" stroke-linejoin="round" stroke-width="4"/>
    <path id="Path_5093" data-name="Path 5093" d="M379.289,1312.941l11.906-18.461a8.239,8.239,0,0,1,10.425-2.989l19.878,9.348" transform="translate(-114.721 -390.394)" fill="none" stroke="#f8efe1" stroke-linecap="round" stroke-linejoin="round" stroke-width="4"/>
    <path id="Path_5094" data-name="Path 5094" d="M419.789,1335.641l-10.552,3.025-3.026-10.552a5.489,5.489,0,0,1,10.553-3.025Z" transform="translate(-122.799 -399.589)" fill="none" stroke="#f8efe1" stroke-linecap="round" stroke-linejoin="round" stroke-width="4"/>
  </g>
</svg>
