<svg xmlns="http://www.w3.org/2000/svg" xmlns:xlink="http://www.w3.org/1999/xlink" width="16" height="16" viewBox="0 0 16 16">
  <defs>
    <clipPath id="clip-path">
      <rect id="Rectangle_842" data-name="Rectangle 842" width="16" height="12.764" fill="#21856a"/>
    </clipPath>
  </defs>
  <g id="favicon" transform="translate(293 -365)">
    <g id="Group_1001" data-name="Group 1001" transform="translate(-293 367)">
      <g id="Group_991" data-name="Group 991" clip-path="url(#clip-path)">
        <path id="Path_4997" data-name="Path 4997" d="M120.8,68.348l-.095.095.095-.095-2.013-1.992a2.413,2.413,0,0,0,.5-1.459v-.019h0v0h0a2.422,2.422,0,0,0-2.42-2.417h-.006a2.423,2.423,0,0,0-2.419,2.42h0v0h0v0s0,0,0,0a2.422,2.422,0,0,0,2.418,2.416h.006a2.413,2.413,0,0,0,1.476-.5l2.013,1.992a.312.312,0,1,0,.442-.442m-3.932-1.672a1.8,1.8,0,1,1,1.271-.527,1.79,1.79,0,0,1-1.271.527m-2.423-1.8Z" transform="translate(-104.893 -57.242)" fill="#21856a"/>
        <path id="Path_4998" data-name="Path 4998" d="M133.641,83.132h-1.436a.243.243,0,0,0,0,.485h.475V84.81a.243.243,0,1,0,.485,0V83.617h.475a.243.243,0,0,0,0-.485" transform="translate(-120.947 -76.193)" fill="#21856a"/>
        <path id="Path_4999" data-name="Path 4999" d="M24.94,35.209l-.043-.088.042.089h0l-.043-.088.042.089a4.478,4.478,0,0,1,1.785-.3,7.474,7.474,0,0,1,1.361.13.292.292,0,1,0,.106-.575,8.059,8.059,0,0,0-1.468-.14,4.963,4.963,0,0,0-2.04.361.292.292,0,1,0,.257.525Z" transform="translate(-22.473 -31.458)" fill="#21856a"/>
        <path id="Path_5000" data-name="Path 5000" d="M118.634,34.684a4.961,4.961,0,0,0-2.04-.361,8.061,8.061,0,0,0-1.468.14.292.292,0,1,0,.106.575,7.475,7.475,0,0,1,1.361-.13,5.446,5.446,0,0,1,1.346.157,3.3,3.3,0,0,1,.338.1l.08.032.017.008h0l.042-.089-.043.088h0l.042-.089-.043.088a.292.292,0,0,0,.257-.525Z" transform="translate(-105.297 -31.458)" fill="#21856a"/>
        <path id="Path_5001" data-name="Path 5001" d="M24.94,55.629l-.043-.088.042.089h0l-.043-.088.042.089a4.478,4.478,0,0,1,1.785-.3,7.474,7.474,0,0,1,1.361.13.292.292,0,1,0,.106-.575,8.059,8.059,0,0,0-1.468-.14,4.963,4.963,0,0,0-2.04.361.292.292,0,1,0,.257.525Z" transform="translate(-22.473 -50.173)" fill="#21856a"/>
        <path id="Path_5002" data-name="Path 5002" d="M24.94,76.049l-.043-.088.042.089h0l-.043-.088.042.089a4.478,4.478,0,0,1,1.785-.3,7.475,7.475,0,0,1,1.361.13.292.292,0,1,0,.106-.575,8.059,8.059,0,0,0-1.468-.14,4.963,4.963,0,0,0-2.04.361.292.292,0,1,0,.257.525Z" transform="translate(-22.473 -68.889)" fill="#21856a"/>
        <path id="Path_5003" data-name="Path 5003" d="M15.3,1.12A13.269,13.269,0,0,0,11.409.043,4.785,4.785,0,0,0,7.792.864,4.789,4.789,0,0,0,4.176.043,13.268,13.268,0,0,0,.285,1.12.487.487,0,0,0,0,1.563V12.277a.487.487,0,0,0,.689.443,12.33,12.33,0,0,1,3.584-.994,3.449,3.449,0,0,1,3.139.854.487.487,0,0,0,.76,0,3.447,3.447,0,0,1,3.138-.854c.172.017.344.04.516.068.147.023.293.05.438.08a.53.53,0,0,0,.146-.964q-.19-.038-.383-.069c-.206-.034-.413-.062-.62-.082a5.327,5.327,0,0,0-3.13.479V1.745a3.609,3.609,0,0,1,3.031-.732,12.209,12.209,0,0,1,3.3.87V7.053a.53.53,0,0,0,.974,0V1.563A.487.487,0,0,0,15.3,1.12M7.305,11.238a5.345,5.345,0,0,0-3.13-.48,13.028,13.028,0,0,0-3.2.79V1.882a12.209,12.209,0,0,1,3.3-.87,3.609,3.609,0,0,1,3.031.732Z" transform="translate(0 0)" fill="#21856a"/>
      </g>
    </g>
    <rect id="Rectangle_846" data-name="Rectangle 846" width="16" height="16" transform="translate(-293 365)" fill="none"/>
  </g>
</svg>
