<svg xmlns="http://www.w3.org/2000/svg" xmlns:xlink="http://www.w3.org/1999/xlink" width="46" height="46" viewBox="0 0 46 46">
  <defs>
    <clipPath id="clip-path">
      <rect id="Rectangle_393" data-name="Rectangle 393" width="44.164" height="33.952" transform="translate(0 0)" fill="none" stroke="#21856a" stroke-width="0.2"/>
    </clipPath>
  </defs>
  <g id="ic-conservation" transform="translate(-224 -1260)">
    <rect id="Rectangle_392" data-name="Rectangle 392" width="46" height="46" transform="translate(224 1260)" fill="none"/>
    <g id="Group_351" data-name="Group 351" transform="translate(225.095 1266.571)">
      <g id="Group_350" data-name="Group 350" transform="translate(0 0)" clip-path="url(#clip-path)">
        <path id="Path_4974" data-name="Path 4974" d="M35.138,29.772a.517.517,0,0,0-.387-.18h-.01l-1.282.019-2.045.03-.468.007a.554.554,0,0,0-.379.166.581.581,0,0,0-.172.411v.024h0a.656.656,0,0,0,.16.406.517.517,0,0,0,.387.181h.009l1.283-.02,2.045-.03.468-.007a.554.554,0,0,0,.378-.167A.582.582,0,0,0,35.3,30.2v-.024a.658.658,0,0,0-.16-.406" transform="translate(-20.824 -19.579)" fill="#21856a" stroke="#21856a" stroke-width="0.2"/>
        <path id="Path_4975" data-name="Path 4975" d="M86.635,48.018a2.714,2.714,0,0,0,1.451-1.791,3.179,3.179,0,0,0,.1-.8A2.928,2.928,0,0,0,87.083,43.1a2.278,2.278,0,0,0-.312-.2A2.7,2.7,0,0,0,85.17,41a2.076,2.076,0,0,0-.751-.137,2.34,2.34,0,0,0-1.76.825,2.925,2.925,0,0,0-.621,1.206,2.75,2.75,0,0,0-1.355,1.8,3.163,3.163,0,0,0-.085.725,3.056,3.056,0,0,0,.669,1.925,2.5,2.5,0,0,0,.913.691,2.6,2.6,0,0,0,1.553,1.507,1.838,1.838,0,0,0,.213.058l.009.914c0,.481.006.959.011,1.44a.544.544,0,0,0,.13.35.45.45,0,0,0,.332.158h.017a.492.492,0,0,0,.326-.149.532.532,0,0,0,.142-.338v-.024L84.9,49.58a2.426,2.426,0,0,0,1.117-.618,2.866,2.866,0,0,0,.624-.944m-.927-.466-.023.049a1.375,1.375,0,0,1-.071.146,1.2,1.2,0,0,1-.071.122l-.04.061-.023.034-.006.006a2.4,2.4,0,0,1-.162.183c-.028.027-.057.055-.088.082l-.009.006,0,0-.062.046a2.285,2.285,0,0,1-.215.131l-.014.006-.037.015v-.058l.785-.8c.014-.015.028-.027.043-.043Zm.094-.777a.437.437,0,0,0-.3-.128.411.411,0,0,0-.3.131c-.1.11-.213.216-.317.326,0-.079,0-.158,0-.238,0-.481-.008-.959-.011-1.44a.518.518,0,0,0-.133-.347.43.43,0,0,0-.329-.158h-.026a.494.494,0,0,0-.459.5v.006c0,.5.006,1,.011,1.5l0,0c-.037-.046-.077-.091-.116-.137a.41.41,0,0,0-.312-.14.4.4,0,0,0-.312.143.5.5,0,0,0,0,.649c.252.289.5.579.751.868v.143a.046.046,0,0,1-.014-.006l-.011,0-.014-.009-.045-.018a1.489,1.489,0,0,1-.235-.149l-.017-.012-.025-.021-.006,0c-.034-.034-.071-.067-.1-.1s-.06-.064-.091-.1l-.048-.061-.006,0c-.054-.082-.1-.164-.147-.25-.017-.034-.034-.07-.051-.107l-.009-.027-.009-.018-.025-.064a.73.73,0,0,0-.068-.186.566.566,0,0,0-.315-.25c-.051-.018-.1-.034-.136-.049l-.028-.012-.014-.006-.006,0,0,0a1.2,1.2,0,0,1-.122-.067c-.037-.024-.074-.049-.108-.076v0l-.037-.027-.014-.012-.006-.006-.008-.006a1.981,1.981,0,0,1-.19-.195h0l-.045-.055-.009-.012-.011-.015-.011-.015,0,0,0,0h0l-.045-.067a1.849,1.849,0,0,1-.139-.271l-.008-.021,0-.009,0-.006v0s0,0,0-.006a.011.011,0,0,0,0-.006v0l-.006-.012-.006-.006c-.014-.046-.026-.091-.04-.137-.02-.079-.037-.161-.051-.25v-.006a.115.115,0,0,1,0-.018c0-.006,0-.015-.006-.021v-.006l-.006-.082c0-.046,0-.088,0-.134v-.04a1.383,1.383,0,0,1,.009-.155l0-.058,0-.006v-.006l0-.015a2.15,2.15,0,0,1,.071-.3l.043-.128,0-.006.04-.088a1.848,1.848,0,0,1,.145-.253l.017-.027.011-.015,0,0,0,0v0l0,0c.031-.04.06-.073.094-.11s.06-.064.094-.094l.051-.049.008-.009a1.907,1.907,0,0,1,.224-.149l.06-.034.028-.012.006,0,.009,0,.006,0,.074-.03v0a.609.609,0,0,0,.215-.134.477.477,0,0,0,.139-.268,2.278,2.278,0,0,1,.057-.277c.011-.043.023-.079.034-.119l.026-.07.006-.021a.01.01,0,0,0,0-.006l0,0v0a2.16,2.16,0,0,1,.1-.2c.02-.037.043-.07.062-.1l.034-.052s0-.006.006-.006l0-.006c.054-.064.1-.125.156-.18a1.069,1.069,0,0,1,.085-.082l.028-.027.014-.009a1.849,1.849,0,0,1,.2-.134c.023-.012.048-.027.074-.04l.006,0,.071-.03v0a1.268,1.268,0,0,1,.232-.067l.048-.009.119-.009h.051a1.352,1.352,0,0,1,.19.012h0l.04.009c.037.006.077.018.116.027s.074.024.111.04l.043.015a1.866,1.866,0,0,1,.213.122,1.222,1.222,0,0,1,.1.073l.034.03a1.692,1.692,0,0,1,.176.18l.037.052a.484.484,0,0,0,.054.067l.028.046a1.944,1.944,0,0,1,.139.265s0,0,0,.006l0,.009.023.052c.017.049.031.1.045.146a2.726,2.726,0,0,1,.065.311.442.442,0,0,0,.139.268.625.625,0,0,0,.213.134l.048.018.011.006.017.006.006,0,.009,0,.037.021a1.416,1.416,0,0,1,.181.113.69.69,0,0,1,.065.049l.048.043a1.565,1.565,0,0,1,.153.158l.068.085.023.034v0a1.73,1.73,0,0,1,.116.2.724.724,0,0,1,.051.107l.023.052a2.009,2.009,0,0,1,.071.222c.011.043.02.085.028.128l.011.07.009.052V45.2l.006.067c0,.052.006.1.006.158s0,.1-.006.155l0,.037,0,.024c0,.012,0,.027-.006.058a2.3,2.3,0,0,1-.062.277,1.34,1.34,0,0,1-.045.14l0,0v0l-.014.03-.017.037a1.652,1.652,0,0,1-.142.265l-.037.058-.006.006-.006.009c-.026.033-.051.064-.077.094-.062.067-.125.131-.2.195l-.051.037c-.037.027-.079.055-.122.082s-.077.043-.113.061L86.233,47l-.011.006-.006,0-.008,0-.006,0a1.24,1.24,0,0,0-.184.073v-.274l-.091.216a.45.45,0,0,0-.125-.256" transform="translate(-55.219 -27.033)" fill="#21856a" stroke="#21856a" stroke-width="0.2"/>
        <path id="Path_4976" data-name="Path 4976" d="M124.209,43.883c-.2,0-.4,0-.6,0-.476-.006-.955-.009-1.434-.015-.578-.006-1.156-.009-1.734-.015-.5-.006-1-.009-1.5-.015-.2,0-.4-.006-.6-.006H118.2a.548.548,0,0,0-.383.167.589.589,0,0,0-.17.411l0,.021h0a.583.583,0,0,0,.553.588c.2,0,.4,0,.6.006.476,0,.955.009,1.434.012l1.734.018c.5,0,1,.009,1.5.012.2,0,.4.009.6.009h.136a.551.551,0,0,0,.383-.171.582.582,0,0,0,.17-.408v-.024a.583.583,0,0,0-.553-.588" transform="translate(-80.599 -28.998)" fill="#21856a" stroke="#21856a" stroke-width="0.2"/>
        <path id="Path_4977" data-name="Path 4977" d="M109.357,61.76a2.441,2.441,0,0,0-.363-.228,2.964,2.964,0,0,0-1.766-2.126,2.261,2.261,0,0,0-.822-.152,2.573,2.573,0,0,0-1.938.917,3.226,3.226,0,0,0-.683,1.349,3.024,3.024,0,0,0-1.511,1.989,3.524,3.524,0,0,0-.094.807,3.371,3.371,0,0,0,.731,2.117,2.69,2.69,0,0,0,1.023.774,2.873,2.873,0,0,0,1.712,1.681,2.329,2.329,0,0,0,.286.073c0,.362.006.725.009,1.084.006.539.008,1.075.011,1.614a.563.563,0,0,0,.133.35.445.445,0,0,0,.329.158h.017l0,0a.476.476,0,0,0,.323-.146.507.507,0,0,0,.145-.341v-.021c-.008-.9-.014-1.8-.023-2.707a2.619,2.619,0,0,0,1.272-.691,3.011,3.011,0,0,0,.7-1.066,2.979,2.979,0,0,0,1.613-1.973,3.625,3.625,0,0,0,.116-.889v0a3.24,3.24,0,0,0-1.221-2.564m-1.445,4.94-.006.015c0,.012-.008.024-.011.04l-.031.067a1.73,1.73,0,0,1-.079.164c-.025.046-.054.094-.085.14l-.04.061-.011.015a2.4,2.4,0,0,1-.213.244c-.017.018-.04.037-.062.058l-.006,0-.008.006-.023.021-.023.018-.071.052a2.019,2.019,0,0,1-.258.152l-.028.012h0l-.06.024a.05.05,0,0,1-.02.006c0-.037,0-.073,0-.11l.93-.953c.048-.052.1-.1.145-.149-.011.043-.023.082-.034.113m1.618-2.193c0,.015,0,.033-.006.049s0,.018,0,.027l0,.033a2.527,2.527,0,0,1-.077.353c-.014.055-.034.107-.051.161v0l-.014.037,0,.009,0,0v0l0,.006v0a.278.278,0,0,1-.014.027,2.406,2.406,0,0,1-.159.292l-.051.076,0,.006c-.034.043-.065.085-.1.122a2.254,2.254,0,0,1-.162.174.066.066,0,0,0-.025.018h0l0,0-.006,0,0,0-.023.018-.071.052a.988.988,0,0,1-.13.085,1.02,1.02,0,0,1-.125.07l-.082.034a.819.819,0,0,0-.329.177l-.011.012a.6.6,0,0,0,.017-.143.5.5,0,0,0-.142-.362.481.481,0,0,0-.334-.143.452.452,0,0,0-.329.146c-.142.143-.283.286-.422.432,0-.119,0-.234,0-.35,0-.539-.008-1.075-.011-1.614a.548.548,0,0,0-.133-.347.43.43,0,0,0-.329-.158h-.026a.489.489,0,0,0-.317.146.5.5,0,0,0-.145.356v.006c.006.588.009,1.179.014,1.766-.023-.027-.045-.052-.068-.079-.045-.052-.088-.1-.13-.152a.456.456,0,0,0-.68,0,.554.554,0,0,0-.13.356.526.526,0,0,0,.13.353l.89,1.029v.2c-.04-.012-.079-.027-.119-.043h0l-.034-.015h-.006l0,0a.3.3,0,0,0-.031-.018,1.99,1.99,0,0,1-.264-.167l-.028-.024-.014-.012-.006-.006,0,0-.006,0h0s0,0,0-.006l-.006,0a1.424,1.424,0,0,1-.116-.113c-.037-.04-.068-.076-.1-.116l-.028-.037-.009-.012c-.006-.006-.011-.015-.025-.034a2.373,2.373,0,0,1-.176-.3c-.023-.046-.043-.094-.065-.143v0c0-.006,0-.009-.006-.015v0l-.006-.015-.006-.015-.017-.049a.688.688,0,0,0-.145-.286.575.575,0,0,0-.269-.155,1.233,1.233,0,0,1-.147-.055l-.009,0-.057-.03a1.1,1.1,0,0,1-.142-.082c-.043-.027-.082-.055-.122-.085l-.028-.021-.017-.015h0l-.006-.006h0v0h0l-.011-.012a2.261,2.261,0,0,1-.215-.228l-.051-.064-.008-.012c-.028-.043-.057-.085-.082-.128a2.883,2.883,0,0,1-.139-.265l-.006-.015a.154.154,0,0,1-.009-.021l-.009-.018-.023-.067c-.02-.061-.037-.116-.054-.177s-.025-.113-.037-.168l-.014-.076-.006-.049c-.009-.1-.014-.192-.014-.286v-.052c0-.061.006-.119.011-.18l0-.037.006-.024v-.015a.012.012,0,0,1,0-.009V64c0-.006,0-.012,0-.018a2.927,2.927,0,0,1,.082-.347l.026-.073.008-.024a.17.17,0,0,1,.014-.034c.017-.04.031-.079.048-.113a2.195,2.195,0,0,1,.164-.289l.02-.027.011-.015.006-.006,0,0,0,0,0-.006,0-.006c.034-.046.071-.085.108-.128s.068-.073.108-.11l.057-.052.011-.009,0,0,.011-.009a2.112,2.112,0,0,1,.241-.161l.071-.04v0l.031-.015.017-.009,0,0,.008,0,.085-.03a.636.636,0,0,0,.215-.134.488.488,0,0,0,.142-.274,2.357,2.357,0,0,1,.062-.314c.014-.049.026-.094.043-.14l.026-.076v0l0-.006c.04-.091.079-.18.125-.262a1.342,1.342,0,0,1,.079-.128h0l.034-.049.011-.015s0-.006.006-.006a1.62,1.62,0,0,1,.17-.2c.034-.03.062-.061.1-.091l.037-.034.02-.015a1.964,1.964,0,0,1,.232-.155c.031-.018.065-.034.1-.052l.082-.034a1.88,1.88,0,0,1,.255-.073l.051-.009.017,0,.017,0c.034,0,.071-.006.108-.006l.057,0a1.752,1.752,0,0,1,.218.015l.06.009.142.037c.043.012.079.027.122.043l.034.012c.011.006.023.009.043.018a1.88,1.88,0,0,1,.224.131c.034.024.071.049.1.076l.009.006.008.009.011.009.028.024c.068.064.13.128.193.2h0l.057.07,0,0,.006.006.011.018.014.015.009.009v0l0,.006h0l.043.07a2.5,2.5,0,0,1,.156.3l.014.034.009.021,0,0,.006.018a1.741,1.741,0,0,1,.054.174,2.387,2.387,0,0,1,.074.35.478.478,0,0,0,.142.274.636.636,0,0,0,.215.134.486.486,0,0,1,.06.024l.006,0,.023.009.071.037a1.452,1.452,0,0,1,.2.128.976.976,0,0,1,.094.073l.04.034a2.1,2.1,0,0,1,.176.186c.026.03.051.061.077.094l.006.006.025.04a2.126,2.126,0,0,1,.13.222c.02.04.037.073.054.113l.031.073,0,0a.034.034,0,0,0,.006.015v0c.026.076.051.152.071.228s.04.155.051.225v.024l0,.018,0,.037.009.082c0,.058.006.119.006.18s0,.119-.006.18" transform="translate(-70.005 -39.204)" fill="#21856a" stroke="#21856a" stroke-width="0.2"/>
        <path id="Path_4978" data-name="Path 4978" d="M3.688,36.469H7.211c.173,0,.351,0,.527,0,.091,0,.179,0,.269,0h.006A.536.536,0,0,0,8.4,36.3a.58.58,0,0,0,.173-.411v-.024a.656.656,0,0,0-.164-.408.527.527,0,0,0-.391-.177H2.279c-.176,0-.351,0-.53,0-.088,0-.176,0-.266,0H1.475a.524.524,0,0,0-.38.168.574.574,0,0,0-.173.411v.03a.662.662,0,0,0,.162.4.537.537,0,0,0,.391.177H3.688Z" transform="translate(-0.632 -23.341)" fill="#21856a" stroke="#21856a" stroke-width="0.2"/>
        <path id="Path_4979" data-name="Path 4979" d="M106.932,53.26a.584.584,0,0,0-.17.411v.03a.676.676,0,0,0,.159.4.523.523,0,0,0,.385.18h.011l1.5-.018c.794-.012,1.59-.021,2.383-.03l.55-.009a.532.532,0,0,0,.377-.164.58.58,0,0,0,.173-.411v-.024a.654.654,0,0,0-.162-.408.518.518,0,0,0-.385-.18h-.02l-1.485.018c-.794.012-1.59.021-2.383.03l-.55.009a.547.547,0,0,0-.38.167" transform="translate(-73.144 -35.089)" fill="#21856a" stroke="#21856a" stroke-width="0.2"/>
        <path id="Path_4980" data-name="Path 4980" d="M17.493,41.227a2.536,2.536,0,0,0-1.927.944,3.406,3.406,0,0,0-.674,1.386,3.092,3.092,0,0,0-1.474,2.028,3.71,3.71,0,0,0-.094.828,3.539,3.539,0,0,0,.723,2.168,2.662,2.662,0,0,0,.995.786,2.9,2.9,0,0,0,1.7,1.727,2.2,2.2,0,0,0,.278.073l.008,1.087c0,.545.006,1.093.011,1.638a.526.526,0,0,0,.133.35.44.44,0,0,0,.329.158h.02a.478.478,0,0,0,.323-.149.511.511,0,0,0,.142-.338V53.89c-.006-.911-.014-1.821-.02-2.735a2.524,2.524,0,0,0,.4-.125c.006,0,.009.009.011.012a2.212,2.212,0,0,0,.816.646A2.38,2.38,0,0,0,20.579,53.1q.1.032.2.055c0,.289,0,.582.006.871,0,.445.006.892.008,1.34a.5.5,0,0,0,.122.32.4.4,0,0,0,.3.146h.017a.444.444,0,0,0,.295-.137.468.468,0,0,0,.133-.329v0l-.017-2.22a2.137,2.137,0,0,0,1-.582,2.605,2.605,0,0,0,.561-.889,2.507,2.507,0,0,0,1.292-1.66,3.168,3.168,0,0,0,.094-.749,2.772,2.772,0,0,0-.995-2.168,1.779,1.779,0,0,0-.269-.183,2.5,2.5,0,0,0-1.445-1.788A1.844,1.844,0,0,0,21.316,45l-.043-.1a3.09,3.09,0,0,0-.876-1.112,2.424,2.424,0,0,0-.337-.222,3.033,3.033,0,0,0-1.751-2.18,2.188,2.188,0,0,0-.816-.158m4.829,10.08v0c-.02.043-.04.085-.06.125-.037.076-.088.146-.142.238l-.04.049a.99.99,0,0,1-.091.1c-.028.033-.057.058-.088.088l0,0v0l-.02.018-.028.021a1.959,1.959,0,0,1-.213.134h0v-.067c.23-.25.462-.5.694-.749l.011-.012Zm-2.063-4.772.034-.046c.026-.03.048-.058.074-.085l.079-.082.037-.033c.074-.049.13-.1.176-.125l.088-.049h0s0,0,.006,0l.011-.006h0l.011-.006h0l0,0a1.255,1.255,0,0,1,.207-.064l.043-.006c.037,0,.071-.009.1-.009l.051,0c.045,0,.088,0,.133.006l.014,0,.048.009a.782.782,0,0,1,.113.03.605.605,0,0,1,.1.034v0l.045.021a1.727,1.727,0,0,1,.176.107c.023.015.045.037.074.055l0,0,.045.04a2.071,2.071,0,0,1,.153.167l.037.049c.026.037.051.073.074.11a2.447,2.447,0,0,1,.122.247l.026.064h0c.017.043.028.088.043.131a2.125,2.125,0,0,1,.057.3.45.45,0,0,0,.133.253.594.594,0,0,0,.184.119s0,0,.006,0l0,0,.009,0a.01.01,0,0,0,.006,0l.006,0h0c.006,0,.011,0,.017.006l.006,0,.009,0a.01.01,0,0,1,.009,0c.037.018.071.04.1.058l.094.064.054.043,0,0a1.821,1.821,0,0,1,.167.171l.045.055h0l.014.018s0,0,0,0l.006.012a.13.13,0,0,0,.017.021s0,0,0,.006a0,0,0,0,1,0,0c.011.018.023.033.031.046a2,2,0,0,1,.128.247l.006.021,0,.009a.448.448,0,0,0,.023.055c.014.037.026.076.037.113a2.738,2.738,0,0,1,.06.283v.012l.009.073h0a1.536,1.536,0,0,1,.006.161c0,.049,0,.1,0,.146l-.006.07,0,.021,0,.021v.006a2.325,2.325,0,0,1-.054.253,1.172,1.172,0,0,1-.043.131h0l-.023.052-.009.024a1.831,1.831,0,0,1-.119.238c-.017.024-.034.052-.054.082l-.017.021v0l-.048.058a1.475,1.475,0,0,1-.162.171l-.008.006-.011.009-.034.03v0a.823.823,0,0,1-.1.073.743.743,0,0,1-.094.055l-.028.015-.031.012a1.018,1.018,0,0,0-.227.107.111.111,0,0,0,0-.03.415.415,0,0,0-.122-.3.4.4,0,0,0-.278-.119.377.377,0,0,0-.275.122l-.264.283c0-.07,0-.143,0-.216,0-.448-.009-.9-.011-1.34a.507.507,0,0,0-.119-.323.413.413,0,0,0-.3-.143h-.023a.448.448,0,0,0-.292.134.464.464,0,0,0-.13.326v.006l.009,1.389c-.028-.037-.057-.07-.085-.107a.364.364,0,0,0-.286-.131.369.369,0,0,0-.283.128.455.455,0,0,0-.111.292.47.47,0,0,0,.108.3c.2.234.391.469.584.707l-.006.006h.011c.028.03.054.064.079.094v.149h0l-.065-.033a1.69,1.69,0,0,1-.2-.131h0v0h0l-.045-.046c-.031-.03-.06-.058-.088-.088s-.054-.061-.082-.1l0-.006-.009-.012-.02-.024-.011-.015,0,0a2.057,2.057,0,0,1-.136-.247l-.023-.049c-.02-.07-.045-.119-.054-.149a.63.63,0,0,0-.094-.207.5.5,0,0,0-.255-.183c-.04-.012-.077-.027-.113-.043l-.006,0-.054-.027a1,1,0,0,1-.108-.064c-.028-.018-.054-.037-.082-.058l0,0-.062-.058v0a2.464,2.464,0,0,1-.167-.183l-.028-.037-.006-.009a1.16,1.16,0,0,1-.074-.119,2.645,2.645,0,0,1-.122-.244h0l-.028-.073h0c-.014-.043-.028-.088-.04-.134s-.023-.091-.031-.14l-.011-.067-.006-.03c-.006-.085-.011-.168-.011-.25v-.034c0-.052,0-.1.006-.149l.008-.067,0-.021a2.344,2.344,0,0,1,.062-.28c.014-.046.028-.088.045-.134l.031-.073a1.953,1.953,0,0,1,.125-.231l.037-.055,0,0,.006-.009c.028-.034.051-.067.077-.094a1.413,1.413,0,0,1,.162-.161l.009-.006.057-.043a.934.934,0,0,1,.1-.07c.031-.018.062-.033.094-.049l.065-.027a.539.539,0,0,0,.193-.122.423.423,0,0,0,.13-.25,2.3,2.3,0,0,1,.113-.469v0a.012.012,0,0,0,0-.009h0l.026-.061.054-.113c.034-.061.071-.119.113-.183Zm-1.933-3.8.051.043c.048.043.1.091.142.14s.082.1.122.149l.006.006v0l.023.03h0l.048.073a2.463,2.463,0,0,1,.167.326,2.889,2.889,0,0,1,.153.618.491.491,0,0,0,.153.289.7.7,0,0,0,.224.143l.045.018a1.808,1.808,0,0,1,.292.177l.051.04.026.021.006.006a1.7,1.7,0,0,1,.145.146,1.672,1.672,0,0,1,.113.137l.006.009s0,0,0,0h0v0l.017.024.057.088a.434.434,0,0,1,.028.049,2.19,2.19,0,0,0-.587.5,2.765,2.765,0,0,0-.55,1.13,2.494,2.494,0,0,0-1.119,1.355v-.195c-.006-.545-.009-1.093-.011-1.638a.563.563,0,0,0-.133-.35.44.44,0,0,0-.329-.158h-.026a.492.492,0,0,0-.317.149.5.5,0,0,0-.145.353v.009c.006.636.009,1.273.014,1.909-.034-.04-.068-.082-.1-.122l-.128-.155a.362.362,0,0,0-.283-.131.37.37,0,0,0-.286.128.437.437,0,0,0-.108.292.461.461,0,0,0,.1.3c.269.326.541.652.811.981,0,.1,0,.207,0,.311l-.071-.027a1.783,1.783,0,0,1-.289-.177l-.034-.027-.011-.009,0,0-.006,0s0,0-.006,0a0,0,0,0,0,0,0v0l0,0-.006,0-.017-.015c-.048-.046-.094-.088-.139-.14s-.077-.088-.113-.134l0,0-.023-.03-.06-.091a2.554,2.554,0,0,1-.162-.32c-.023-.061-.043-.137-.071-.216a.754.754,0,0,0-.139-.244.615.615,0,0,0-.218-.143c-.068-.027-.128-.046-.181-.067a2.015,2.015,0,0,1-.278-.167l-.057-.046-.028-.024c-.051-.046-.1-.094-.145-.143s-.079-.094-.116-.14v0l0,0,0,0-.006-.006-.011-.018-.006-.009,0-.006h0l-.043-.07a2.556,2.556,0,0,1-.17-.332,2.707,2.707,0,0,1-.145-.566,2.845,2.845,0,0,1,0-.621,2.694,2.694,0,0,1,.142-.56,2.6,2.6,0,0,1,.17-.335c.02-.03.037-.061.057-.088l.009-.012a1.756,1.756,0,0,1,.13-.158c.043-.049.085-.091.133-.137l.008-.006.009-.006.009-.009.057-.046,0,0a1.809,1.809,0,0,1,.292-.177c.026-.012.051-.021.071-.03a.606.606,0,0,0,.23-.143.491.491,0,0,0,.153-.289,2.949,2.949,0,0,1,.15-.606,2.412,2.412,0,0,1,.164-.323l.057-.088.02-.027a1.487,1.487,0,0,1,.119-.146c.045-.052.094-.1.142-.146l.034-.027.02-.015.006-.006.006,0,.006-.006,0,0,.011-.009a2.368,2.368,0,0,1,.278-.167,1.6,1.6,0,0,1,.368-.11,1.7,1.7,0,0,1,.176-.009,1.645,1.645,0,0,1,.173.009,1.373,1.373,0,0,1,.643.277c.006,0,.011.009.017.012l0,0Z" transform="translate(-9.128 -27.277)" fill="#21856a" stroke="#21856a" stroke-width="0.2"/>
        <path id="Path_4981" data-name="Path 4981" d="M106.455,36.472c.079,0,.159,0,.238,0h.006a.536.536,0,0,0,.383-.167.589.589,0,0,0,.17-.411v-.024a.654.654,0,0,0-.162-.408.532.532,0,0,0-.391-.177H101.66c-.153,0-.309,0-.465,0-.079,0-.159,0-.238,0h-.006a.536.536,0,0,0-.383.168.584.584,0,0,0-.17.411v.03a.663.663,0,0,0,.162.4.527.527,0,0,0,.391.177h5.039c.153,0,.309,0,.465,0" transform="translate(-68.784 -23.341)" fill="#21856a" stroke="#21856a" stroke-width="0.2"/>
        <path id="Path_4982" data-name="Path 4982" d="M35.216,32.847c-.8-.521-1.584-1.066-2.349-1.645q-.582-.439-1.153-.9c-.088-.073-.176-.143-.266-.216l-.077-.064h0l-.009-.009,0,0L31.345,30,31.339,30s-.006,0-.009-.006c-.043-.034-.085-.07-.128-.107-.187-.155-.371-.314-.553-.472a40.182,40.182,0,0,1-4.157-4.187q-.948-1.115-1.814-2.305l-.023-.03v0l0,0h0a.068.068,0,0,0-.009-.015l0,0-.031-.043-.1-.149c-.071-.1-.142-.2-.21-.3-.142-.2-.283-.414-.419-.624q-.4-.608-.774-1.233a22.819,22.819,0,0,1-1.34-2.631c-.048-.113-.1-.228-.145-.344-.02-.052-.04-.1-.062-.152l-.023-.064-.006-.015-.008-.018v0l-.009-.018v0l0-.006v0h0c-.088-.234-.176-.469-.255-.707-.164-.472-.309-.953-.434-1.437s-.23-.984-.312-1.486l-.051-.347c-.006-.033-.009-.067-.014-.1l0-.018v-.006l0-.018v-.012a.041.041,0,0,1,0-.018l0-.009,0-.03v-.006c-.006-.037-.008-.076-.014-.116q-.038-.37-.06-.74c-.014-.253-.023-.509-.023-.761,0-.041,0-.081,0-.122,0-.2.008-.4.019-.594.014-.244.034-.49.062-.734V9.979h0c0-.033.009-.067.011-.1.009-.061.017-.122.028-.183.017-.122.04-.241.06-.362s.054-.243.081-.363l.424-.007a.557.557,0,0,0,.378-.167.582.582,0,0,0,.172-.411V8.361a.656.656,0,0,0-.159-.406.516.516,0,0,0-.387-.181h-.011l-.615.01q-.22-.249-.442-.5-.563-.626-1.137-1.24l.02-.029.143-.2v0L19,5.793l.088-.122q.293-.4.6-.785A18.853,18.853,0,0,1,21,3.4q.343-.345.705-.668l.181-.158.082-.07h0l.039-.032,0,0h0c.12-.1.241-.2.363-.289a7.581,7.581,0,0,1,.761-.519q.2-.12.413-.22h0l.017-.008h0l.1-.043c.072-.029.145-.056.219-.08a3.005,3.005,0,0,1,.419-.107h.01A.389.389,0,0,0,24.4,1.2l.032-.006h0q.1-.009.208-.009h.015c.069,0,.138,0,.206.011h.014l.009,0h.008l.045.005.039.006a2.607,2.607,0,0,1,.384.1c.057.021.115.044.174.069l.023.011.014.006h0l.008,0,.074.038a3.687,3.687,0,0,1,.361.215c.116.077.228.16.338.248l.028.025.017.016.006.006,0,0,.005,0h0a.107.107,0,0,0,.019.013l0,0,0,0h0l.006.005h0c.057.049.113.1.169.151.46.423.879.906,1.31,1.382q.729.8,1.45,1.615l.114.129.031.035q1.125,1.269,2.219,2.567H26.528c.02.065.038.132.053.2a2.5,2.5,0,0,0-1.44-1.771,1.78,1.78,0,0,0-.672-.128,2.086,2.086,0,0,0-1.59.777,2.78,2.78,0,0,0-.553,1.133A2.53,2.53,0,0,0,21.12,9.738a3.058,3.058,0,0,0,.058,1.578,2.782,2.782,0,0,0,.46.889,2.194,2.194,0,0,0,.811.646,2.4,2.4,0,0,0,1.394,1.413c.065.021.128.04.193.055,0,.289,0,.582.006.871.006.448.008.892.011,1.34a.486.486,0,0,0,.122.32.394.394,0,0,0,.3.146h.02a.444.444,0,0,0,.295-.137.466.466,0,0,0,.13-.329v0l-.017-2.22a2.109,2.109,0,0,0,1-.582,2.593,2.593,0,0,0,.561-.886,2.506,2.506,0,0,0,1.254-1.523c.014-.045.027-.091.039-.137a3.131,3.131,0,0,0,.091-.725v-.027a2.933,2.933,0,0,0-.364-1.417c.008.013.017.025.025.038h10.4a.543.543,0,0,0,.381-.167.587.587,0,0,0,.172-.411V8.446a.652.652,0,0,0-.162-.409.524.524,0,0,0-.389-.177h-4.7q-1.234-1.5-2.517-2.953c.38-.371.756-.744,1.141-1.1q.206-.193.417-.38c.072-.064.144-.127.216-.189l.1-.083.057-.048.024-.02.013-.011,0,0,0,0,.005-.006.008-.009c.115-.1.244-.192.372-.289.147-.111.3-.219.448-.321a7.233,7.233,0,0,1,1-.571,4.573,4.573,0,0,1,1.112-.338,2.8,2.8,0,0,1,.362-.025,2.046,2.046,0,0,1,.228.012,2.2,2.2,0,0,1,.477.143,3.046,3.046,0,0,1,.511.318l.066.049h0l0,0,.006,0,.012.011.029.024.077.067h0c.085.076.168.156.251.238.335.335.644.709.966,1.077.4.46.816.905,1.211,1.364q.633.735,1.241,1.5.679.852,1.325,1.734a.45.45,0,0,0,.2.146.558.558,0,0,0,.208.044.536.536,0,0,0,.4-.179.624.624,0,0,0,.157-.4V7.632a.693.693,0,0,0-.149-.4q-1.214-1.658-2.548-3.211c-.419-.488-.854-.956-1.272-1.434-.333-.381-.661-.779-1.033-1.14A4.324,4.324,0,0,0,36.954.5a2.7,2.7,0,0,0-.822-.182c-.054,0-.108-.005-.162-.005a3.941,3.941,0,0,0-.719.079,7,7,0,0,0-2.961,1.5,30.243,30.243,0,0,0-2.353,2.151q-.478-.535-.959-1.067c-.45-.5-.9-1.014-1.38-1.491A5.788,5.788,0,0,0,26.078.348,3.361,3.361,0,0,0,25.141.04,3.273,3.273,0,0,0,24.633,0a3.313,3.313,0,0,0-.61.058A4.936,4.936,0,0,0,22.179.9,13.223,13.223,0,0,0,20.6,2.19a20.4,20.4,0,0,0-2.581,3.025c-.615-.638-1.242-1.265-1.886-1.871a23.386,23.386,0,0,0-2.224-1.889,7.248,7.248,0,0,0-.943-.6,2.6,2.6,0,0,0-.974-.319c-.035,0-.07,0-.1,0A2.107,2.107,0,0,0,11.1.712a5.4,5.4,0,0,0-.99.545A15.931,15.931,0,0,0,8,3.048c-.7.685-1.369,1.406-2.02,2.142q-.834.944-1.629,1.923-.384.471-.759.951L.551,8.115a.552.552,0,0,0-.378.166A.582.582,0,0,0,0,8.693v.024H0a.659.659,0,0,0,.159.406A.514.514,0,0,0,.546,9.3h.01l8-.133,7.964-.132,1.026-.017q.06-.171.123-.34l.044-.12c.011-.027.027-.051.04-.077-.013.026-.029.05-.04.077q-.5,1.352-.874,2.756-.188.715-.341,1.44a29.341,29.341,0,0,0-.629,6.015l0,.024a29.188,29.188,0,0,0,2.148,10.982,28.15,28.15,0,0,0,1.542,3.228c.054.1.108.192.162.289a.567.567,0,0,0,.487.289.443.443,0,0,0,.272-.085.631.631,0,0,0,.269-.518.6.6,0,0,0-.077-.292,28.386,28.386,0,0,1-1.479-2.978c-.065-.155-.13-.311-.193-.469-.017-.043-.034-.082-.051-.125l-.037-.094s0-.009-.006-.012c-.026-.067-.051-.134-.077-.2-.139-.356-.266-.719-.388-1.084-.269-.8-.5-1.611-.7-2.433-.215-.9-.388-1.809-.513-2.726-.009-.061-.017-.125-.026-.186-.006-.033-.009-.067-.014-.1v-.012l0-.024v0c0-.006,0-.012,0-.018-.014-.107-.028-.216-.04-.326-.026-.253-.051-.509-.071-.761-.045-.524-.074-1.051-.088-1.578-.006-.253-.009-.506-.009-.755q0-1.211.1-2.418c.023-.25.045-.5.074-.743.008-.1.023-.2.034-.3v-.006a.1.1,0,0,0,.006-.024V15.3l.011-.091v0c.009-.067.017-.131.028-.2q.094-.685.221-1.361.222-1.179.541-2.333.279-1.01.63-1.992c.038-.108.078-.216.118-.323l.71-.012q.033-.171.071-.34.011-.05.023-.1c.02-.084.04-.169.062-.252a.591.591,0,0,1,.043-.12.468.468,0,0,1,.027-.042.582.582,0,0,0-.071.162,12.58,12.58,0,0,0-.382,3.018c0,.041,0,.081,0,.122a15.557,15.557,0,0,0,.334,3.161,21.037,21.037,0,0,0,2.2,5.835,33.183,33.183,0,0,0,3.429,5,39.28,39.28,0,0,0,4.155,4.349,42.4,42.4,0,0,0,4.719,3.691c.2.134.394.265.6.393a.509.509,0,0,0,.275.082.543.543,0,0,0,.485-.3.658.658,0,0,0,.068-.292.6.6,0,0,0-.266-.512M20.672,8.612h0c0-.005,0-.011,0-.016s0,.011,0,.016M20.581,8.1a.505.505,0,0,0-.3-.219c-.007,0-.015,0-.022,0,.008,0,.015,0,.023,0a.5.5,0,0,1,.3.219m-.434-.238A.532.532,0,0,0,20,7.888c.014,0,.028-.011.043-.014a.541.541,0,0,1,.11-.012m-.193.039a.561.561,0,0,0-.141.076.55.55,0,0,1,.141-.076m-6.948.006L5.068,8.04q.608-.75,1.237-1.48c.625-.726,1.266-1.436,1.93-2.118.336-.345.678-.682,1.029-1.007q.25-.231.507-.453l.116-.1.038-.032.036-.029.009-.008h0q.109-.089.219-.175a7.616,7.616,0,0,1,.911-.625q.1-.059.209-.112l.068-.033.046-.019a2.03,2.03,0,0,1,.36-.114l.041-.006h.016l.069,0,.063,0,.052.012a1.719,1.719,0,0,1,.165.051l.082.031.051.022.026.012.008,0h.006l.116.058c.146.077.29.164.432.256a11.666,11.666,0,0,1,.979.719l.121.1.06.049.009.008.013.011.006.005h0l.005,0,.239.2q.275.238.545.483c.746.676,1.465,1.387,2.171,2.114q.312.321.621.647a.5.5,0,0,0,.036.038q.573.605,1.135,1.224l.027.029-5.874.1m5.239.238a.519.519,0,0,0-.158.028c.011,0,.021-.009.033-.012a.518.518,0,0,1,.126-.016m8.9.392c-.02-.023-.038-.047-.06-.069.021.022.039.046.06.069m-.37-.339c.027.019.053.039.078.059a1.943,1.943,0,0,0-.271-.179h0a1.94,1.94,0,0,1,.192.12m-1.19,4.26,0,.009v.006l-.06.128c-.04.076-.094.152-.15.247l-.031.037c-.028.033-.06.07-.091.1s-.057.055-.088.085l0,0v0l-.011.009-.014.012-.006.006-.017.012a1.611,1.611,0,0,1-.215.134l0,0v-.07c.232-.25.465-.5.7-.746l.006-.006Zm1.054-1.069c-.017.03-.043.064-.068.1l-.048.061a1.424,1.424,0,0,1-.173.18h0l-.011.009-.017.012-.017.012c-.034.027-.071.052-.1.076s-.062.037-.094.052l-.051.024s0,0-.006,0a.809.809,0,0,0-.23.107V12a.414.414,0,0,0-.119-.3.4.4,0,0,0-.278-.119.377.377,0,0,0-.275.122c-.088.1-.179.192-.266.289,0-.073,0-.149,0-.222l0-.454q0-.444-.006-.886a.48.48,0,0,0-.122-.32.4.4,0,0,0-.3-.146h-.023a.448.448,0,0,0-.292.134.467.467,0,0,0-.13.332v0q0,.44.005.883,0,.251,0,.5c-.028-.037-.057-.07-.088-.107a.358.358,0,0,0-.283-.131.37.37,0,0,0-.286.128.455.455,0,0,0,0,.588c.193.234.388.469.584.7l-.009.009h.014c.026.03.051.064.077.094v.152s0,0,0,0l-.062-.033a1.152,1.152,0,0,1-.2-.128l0,0-.054-.049c-.031-.03-.057-.058-.085-.088a.657.657,0,0,1-.082-.1l-.006-.006a.055.055,0,0,0-.014-.021l-.011-.015L23.5,12.8l0-.006a2.019,2.019,0,0,1-.136-.244l-.028-.061c-.017-.067-.04-.11-.048-.14a.82.82,0,0,0-.094-.207.52.52,0,0,0-.258-.183c-.043-.015-.085-.03-.125-.049h0l-.043-.024a1,1,0,0,1-.108-.064c-.028-.018-.054-.037-.082-.058l-.014-.009,0,0h0l-.023-.018,0,0,0,0-.023-.021a1.651,1.651,0,0,1-.167-.183l-.034-.046a1.172,1.172,0,0,1-.077-.119l-.023-.043c-.033-.062-.063-.129-.093-.2l0,0s0,0,0-.006l0,0-.02-.061c-.014-.046-.026-.088-.04-.134s-.02-.091-.028-.14L22,10.7h0L22,10.664c-.006-.082-.011-.161-.011-.244v-.03l0-.006v0c0-.052,0-.1.006-.149L22,10.171l0-.021a1.9,1.9,0,0,1,.062-.28c.011-.043.028-.088.043-.131l.006-.018.028-.058a1.374,1.374,0,0,1,.125-.231l.04-.061,0-.006.079-.094a1.892,1.892,0,0,1,.15-.155l.02-.015.057-.04a.933.933,0,0,1,.1-.07.7.7,0,0,1,.094-.049l.062-.027v0a.568.568,0,0,0,.193-.125.425.425,0,0,0,.133-.25,2.3,2.3,0,0,1,.113-.469.011.011,0,0,1,0-.006l0-.006L23.35,8c.017-.037.034-.073.054-.11.034-.064.074-.122.113-.186l.009-.012.028-.037a.727.727,0,0,1,.077-.088l.079-.082.037-.033c.074-.049.128-.1.173-.125s.06-.033.091-.049l.023-.009,0,0h.006l0,0h0l0,0a2.032,2.032,0,0,1,.2-.064v0l.04-.009c.04,0,.077-.009.1-.009l.051,0a.951.951,0,0,1,.159.012l.04.006c.037.009.074.018.113.03s.062.021.1.033l.04.018a1.375,1.375,0,0,1,.181.107l.074.055,0,0,.043.04a1.722,1.722,0,0,1,.156.171l.037.046a1.2,1.2,0,0,1,.071.11,1.705,1.705,0,0,1,.122.241l0,.009.023.061c.014.043.028.088.04.131a2.638,2.638,0,0,1,.06.3.422.422,0,0,0,.13.253.618.618,0,0,0,.179.116l.02.012.017.006s.006,0,.008,0,.009,0,.017.006l.009,0c.037.018.074.04.111.061s.065.043.094.064l.045.033.006.006a1.691,1.691,0,0,1,.176.18l.043.052,0,0,.011.018,0,0v0l0,0v0h0l0,.006.006.009L26.6,9.4c.014.021.028.043.04.058a1.767,1.767,0,0,1,.128.244h0l.009.015v.012l0,0a.167.167,0,0,0,.023.052c.011.037.026.079.037.119.02.082.04.171.057.265v.012l0,.018v0l.006.07c0,.055.006.1.006.158a1.287,1.287,0,0,1-.006.149l0,.07,0,.012a2.806,2.806,0,0,1-.057.286c-.014.046-.028.085-.043.131l-.02.058-.009.015a1.576,1.576,0,0,1-.08.167c-.014.025-.027.049-.042.073M27.29,8.7l.006.007c.008.01.014.023.021.034-.01-.013-.018-.027-.027-.041m5.263-5.691-.021.09ZM17.92,8.263a.5.5,0,0,1,.134-.077.5.5,0,0,0-.134.077m.465-.1a.544.544,0,0,0-.139-.018.544.544,0,0,1,.111.012l.028.007a.5.5,0,0,1,.25.162.5.5,0,0,0-.25-.162m.3.211a.691.691,0,0,1,.078.152.691.691,0,0,0-.078-.152m.121.361h0a.612.612,0,0,0-.028-.157.645.645,0,0,1,.022.082.6.6,0,0,1,.006.075m1.009-.759A.572.572,0,0,0,19.7,8.1a.572.572,0,0,1,.112-.121" transform="translate(0 0)" fill="#21856a" stroke="#21856a" stroke-width="0.2"/>
        <path id="Path_4983" data-name="Path 4983" d="M10.677,85.87h.006a.536.536,0,0,0,.383-.168.6.6,0,0,0,.173-.411l0-.018v0a.655.655,0,0,0-.162-.411.527.527,0,0,0-.391-.177H4.81c-.179,0-.36,0-.541,0-.091,0-.184,0-.275,0H3.986a.529.529,0,0,0-.38.167.574.574,0,0,0-.173.411v.03a.663.663,0,0,0,.164.4.526.526,0,0,0,.388.177H9.861c.179,0,.36,0,.541,0,.091,0,.181,0,.275,0" transform="translate(-2.352 -56.026)" fill="#21856a" stroke="#21856a" stroke-width="0.2"/>
        <path id="Path_4984" data-name="Path 4984" d="M33.549,94.06H26.566c-.213,0-.428,0-.643,0-.108,0-.215,0-.323,0h-.011a.536.536,0,0,0-.383.167.592.592,0,0,0-.173.411l0,.03a.66.66,0,0,0,.162.4.527.527,0,0,0,.391.177h6.983c.213,0,.428,0,.643,0,.108,0,.215,0,.323,0h.011a.536.536,0,0,0,.383-.167.584.584,0,0,0,.17-.411v-.021a.655.655,0,0,0-.162-.411.527.527,0,0,0-.391-.177" transform="translate(-17.15 -62.23)" fill="#21856a" stroke="#21856a" stroke-width="0.2"/>
      </g>
    </g>
  </g>
</svg>
