<svg xmlns="http://www.w3.org/2000/svg" xmlns:xlink="http://www.w3.org/1999/xlink" width="46" height="46" viewBox="0 0 46 46">
  <defs>
    <clipPath id="clip-path">
      <rect id="Rectangle_388" data-name="Rectangle 388" width="43.75" height="40.673" transform="translate(0 0)" fill="none"/>
    </clipPath>
  </defs>
  <g id="ic-farming" transform="translate(-224 -936)">
    <rect id="Rectangle_391" data-name="Rectangle 391" width="46" height="46" transform="translate(224 936)" fill="none"/>
    <g id="Group_347" data-name="Group 347" transform="translate(224.782 939.08)">
      <g id="Group_346" data-name="Group 346" transform="translate(0 0)" clip-path="url(#clip-path)">
        <path id="Path_4938" data-name="Path 4938" d="M26.856,101.664h-3.77a.723.723,0,0,1-.723-.723V96.074a.723.723,0,0,1,.723-.723h3.77a.723.723,0,0,1,.723.723v4.867a.723.723,0,0,1-.723.723m-3.047-1.446h2.324V96.8H23.809Z" transform="translate(-14.865 -63.381)" fill="#21856a"/>
        <path id="Path_4939" data-name="Path 4939" d="M75.54,101.664H71.77a.723.723,0,0,1-.723-.723V96.074a.723.723,0,0,1,.723-.723h3.77a.723.723,0,0,1,.723.723v4.867a.723.723,0,0,1-.723.723m-3.047-1.446h2.324V96.8H72.493Z" transform="translate(-47.226 -63.381)" fill="#21856a"/>
        <path id="Path_4940" data-name="Path 4940" d="M51.2,101.664h-3.77a.723.723,0,0,1-.723-.723V96.074a.723.723,0,0,1,.723-.723H51.2a.723.723,0,0,1,.723.723v4.867a.723.723,0,0,1-.723.723m-3.047-1.446h2.324V96.8H48.152Z" transform="translate(-31.046 -63.381)" fill="#21856a"/>
        <path id="Path_4941" data-name="Path 4941" d="M5.708,101.664H3.549a.723.723,0,0,1-.723-.723V96.074a.723.723,0,0,1,.723-.723h2.16a.723.723,0,0,1,.723.723v4.867a.723.723,0,0,1-.723.723m-1.436-1.446h.713V96.8H4.272Z" transform="translate(-1.878 -63.381)" fill="#21856a"/>
        <path id="Path_4942" data-name="Path 4942" d="M122.612,101.664h-2.159a.723.723,0,0,1-.723-.723V96.074a.723.723,0,0,1,.723-.723h2.159a.723.723,0,0,1,.723.723v4.867a.723.723,0,0,1-.723.723m-1.436-1.446h.713V96.8h-.713Z" transform="translate(-79.586 -63.381)" fill="#21856a"/>
        <path id="Path_4943" data-name="Path 4943" d="M99.883,101.664h-3.77a.723.723,0,0,1-.723-.723V96.074a.723.723,0,0,1,.723-.723h3.77a.723.723,0,0,1,.722.723v4.867a.723.723,0,0,1-.722.723m-3.047-1.446H99.16V96.8H96.836Z" transform="translate(-63.407 -63.381)" fill="#21856a"/>
        <path id="Path_4944" data-name="Path 4944" d="M14.38,92.645H9.989a.723.723,0,0,1-.723-.723v-9.8a.725.725,0,0,1,.126-.408l2.2-3.207a.722.722,0,0,1,1.193,0l2.2,3.207a.725.725,0,0,1,.126.408v9.8a.723.723,0,0,1-.723.723M10.712,91.2h2.945V82.342l-1.472-2.151-1.473,2.151Z" transform="translate(-6.159 -51.973)" fill="#21856a"/>
        <path id="Path_4945" data-name="Path 4945" d="M38.722,92.645H34.33a.723.723,0,0,1-.723-.723v-9.8a.72.72,0,0,1,.127-.408l2.2-3.207a.722.722,0,0,1,1.192,0l2.2,3.207a.726.726,0,0,1,.127.408v9.8a.723.723,0,0,1-.723.723M35.053,91.2H38V82.342l-1.473-2.151-1.473,2.151Z" transform="translate(-22.339 -51.973)" fill="#21856a"/>
        <path id="Path_4946" data-name="Path 4946" d="M63.064,92.684H58.673a.723.723,0,0,1-.723-.723v-9.8a.725.725,0,0,1,.126-.408l2.2-3.207a.75.75,0,0,1,1.193,0l2.2,3.207a.725.725,0,0,1,.126.408v9.8a.723.723,0,0,1-.723.723M59.4,91.238h2.945V82.381L60.868,80.23,59.4,82.381Z" transform="translate(-38.52 -52.011)" fill="#21856a"/>
        <path id="Path_4947" data-name="Path 4947" d="M87.405,92.645H83.013a.723.723,0,0,1-.723-.723v-9.8a.72.72,0,0,1,.127-.408l2.2-3.207a.722.722,0,0,1,1.192,0L88,81.71a.725.725,0,0,1,.127.408v9.8a.723.723,0,0,1-.723.723M83.736,91.2h2.946V82.342l-1.473-2.151-1.473,2.151Z" transform="translate(-54.699 -51.973)" fill="#21856a"/>
        <path id="Path_4948" data-name="Path 4948" d="M111.747,92.645h-4.391a.723.723,0,0,1-.723-.723v-9.8a.725.725,0,0,1,.126-.408l2.2-3.207a.723.723,0,0,1,1.193,0l2.2,3.207a.72.72,0,0,1,.127.408v9.8a.723.723,0,0,1-.723.723M108.078,91.2h2.946V82.342l-1.473-2.151-1.473,2.151Z" transform="translate(-70.88 -51.973)" fill="#21856a"/>
        <path id="Path_4949" data-name="Path 4949" d="M66.278,26.335a7.681,7.681,0,0,1-6.3-3.288A7.285,7.285,0,1,1,55.957,9.689a7.162,7.162,0,0,1,.985.069,6.823,6.823,0,1,1,13.645-.005,6.718,6.718,0,0,1-.405,2.3,7.672,7.672,0,0,1-3.9,14.278m-6.1-5.06a.738.738,0,0,1,.133.012.724.724,0,0,1,.5.363,6.229,6.229,0,1,0,8.138-8.613.724.724,0,0,1-.341-.965,5.323,5.323,0,0,0,.533-2.319,5.377,5.377,0,1,0-10.754,0,5.271,5.271,0,0,0,.067.8.723.723,0,0,1-.911.8,5.838,5.838,0,1,0,2.168,10.085.721.721,0,0,1,.465-.17" transform="translate(-32.352 -1.948)" fill="#21856a"/>
        <path id="Path_4950" data-name="Path 4950" d="M59.827,44.93a1.223,1.223,0,1,1,1.223-1.224,1.224,1.224,0,0,1-1.223,1.224m0-1.446a.222.222,0,1,0,.223.222.222.222,0,0,0-.223-.222" transform="translate(-38.956 -28.239)" fill="#21856a"/>
        <path id="Path_4951" data-name="Path 4951" d="M68.085,36.306a1.223,1.223,0,1,1,1.223-1.223,1.225,1.225,0,0,1-1.223,1.223m0-1.446a.223.223,0,1,0,.223.223.223.223,0,0,0-.223-.223" transform="translate(-44.444 -22.507)" fill="#21856a"/>
        <path id="Path_4952" data-name="Path 4952" d="M86.826,21.1a1.37,1.37,0,1,1,1.37-1.37,1.371,1.371,0,0,1-1.37,1.37m0-1.446a.076.076,0,0,0-.076.076c0,.084.153.084.153,0a.077.077,0,0,0-.076-.076" transform="translate(-56.804 -12.203)" fill="#21856a"/>
        <path id="Path_4953" data-name="Path 4953" d="M94.879,36.4a1.272,1.272,0,1,1,1.272-1.271A1.273,1.273,0,0,1,94.879,36.4m0-1.445a.174.174,0,1,0,.174.174.174.174,0,0,0-.174-.174" transform="translate(-62.222 -22.507)" fill="#21856a"/>
        <path id="Path_4954" data-name="Path 4954" d="M101.427,54.176A1.181,1.181,0,1,1,102.607,53a1.182,1.182,0,0,1-1.18,1.181m0-1.446a.266.266,0,1,0,.265.265.266.266,0,0,0-.265-.265" transform="translate(-66.635 -34.442)" fill="#21856a"/>
        <path id="Path_4955" data-name="Path 4955" d="M81.937,40.5a1.321,1.321,0,1,1,1.321-1.321A1.323,1.323,0,0,1,81.937,40.5m0-1.446a.125.125,0,0,0-.125.125c0,.137.251.136.251,0a.125.125,0,0,0-.125-.125" transform="translate(-53.587 -25.167)" fill="#21856a"/>
        <path id="Path_4956" data-name="Path 4956" d="M76.723,69.1A.723.723,0,0,1,76,68.375V61.36a.723.723,0,0,1,1.446,0v7.015a.723.723,0,0,1-.723.723" transform="translate(-50.518 -40.306)" fill="#21856a"/>
        <path id="Path_4957" data-name="Path 4957" d="M87.319,68.107a.723.723,0,0,1-.723-.723V65.007a.723.723,0,0,1,1.446,0v2.377a.723.723,0,0,1-.723.723" transform="translate(-57.562 -42.73)" fill="#21856a"/>
        <path id="Path_4958" data-name="Path 4958" d="M20.8,27.771a6.481,6.481,0,1,1,6.481-6.481A6.488,6.488,0,0,1,20.8,27.771m0-11.516A5.035,5.035,0,1,0,25.84,21.29,5.041,5.041,0,0,0,20.8,16.255" transform="translate(-9.521 -9.844)" fill="#21856a"/>
        <path id="Path_4959" data-name="Path 4959" d="M32.219,60.733a.723.723,0,0,1-.723-.723v-2.36a.723.723,0,0,1,1.446,0v2.36a.723.723,0,0,1-.723.723" transform="translate(-20.936 -37.839)" fill="#21856a"/>
        <path id="Path_4960" data-name="Path 4960" d="M21.281,59.086a.708.708,0,0,1-.247-.044.724.724,0,0,1-.433-.926l.808-2.219a.723.723,0,1,1,1.359.5L21.96,58.61a.722.722,0,0,1-.679.476" transform="translate(-13.665 -36.84)" fill="#21856a"/>
        <path id="Path_4961" data-name="Path 4961" d="M11.662,54.344a.723.723,0,0,1-.553-1.188l1.517-1.808a.723.723,0,1,1,1.108.929l-1.518,1.808a.721.721,0,0,1-.554.258" transform="translate(-7.271 -33.961)" fill="#21856a"/>
        <path id="Path_4962" data-name="Path 4962" d="M4.522,47.081a.723.723,0,0,1-.362-1.349L6.2,44.552A.723.723,0,1,1,6.927,45.8l-2.044,1.18a.722.722,0,0,1-.361.1" transform="translate(-2.525 -29.55)" fill="#21856a"/>
        <path id="Path_4963" data-name="Path 4963" d="M.722,38.171A.723.723,0,0,1,.6,36.736l2.325-.41a.723.723,0,1,1,.251,1.423L.849,38.16a.746.746,0,0,1-.127.011" transform="translate(0 -24.139)" fill="#21856a"/>
        <path id="Path_4964" data-name="Path 4964" d="M3.049,28.285a.735.735,0,0,1-.127-.011L.6,27.865a.723.723,0,0,1,.25-1.424l2.325.41a.723.723,0,0,1-.124,1.435" transform="translate(0 -17.568)" fill="#21856a"/>
        <path id="Path_4965" data-name="Path 4965" d="M6.566,18.619a.722.722,0,0,1-.361-.1l-2.044-1.18a.723.723,0,1,1,.723-1.252l2.044,1.18a.723.723,0,0,1-.362,1.349" transform="translate(-2.525 -10.631)" fill="#21856a"/>
        <path id="Path_4966" data-name="Path 4966" d="M13.18,10.739a.724.724,0,0,1-.555-.258L11.108,8.673a.723.723,0,0,1,1.107-.93l1.518,1.809a.723.723,0,0,1-.553,1.188" transform="translate(-7.271 -4.976)" fill="#21856a"/>
        <path id="Path_4967" data-name="Path 4967" d="M22.089,5.594a.723.723,0,0,1-.68-.476L20.6,2.9a.723.723,0,0,1,1.359-.5l.808,2.219a.723.723,0,0,1-.432.926.712.712,0,0,1-.247.044" transform="translate(-13.665 -1.282)" fill="#21856a"/>
        <path id="Path_4968" data-name="Path 4968" d="M32.219,3.807a.723.723,0,0,1-.723-.723V.723a.723.723,0,0,1,1.446,0V3.084a.723.723,0,0,1-.723.723" transform="translate(-20.936 0)" fill="#21856a"/>
        <path id="Path_4969" data-name="Path 4969" d="M40.75,5.595a.708.708,0,0,1-.247-.044.724.724,0,0,1-.433-.926l.808-2.219a.723.723,0,1,1,1.359.5l-.807,2.218a.722.722,0,0,1-.679.476" transform="translate(-26.606 -1.283)" fill="#21856a"/>
        <path id="Path_4970" data-name="Path 4970" d="M48.252,10.738A.723.723,0,0,1,47.7,9.551l1.518-1.809a.723.723,0,0,1,1.108.93L48.806,10.48a.723.723,0,0,1-.554.258" transform="translate(-31.594 -4.975)" fill="#21856a"/>
        <path id="Path_4971" data-name="Path 4971" d="M53.821,18.619a.723.723,0,0,1-.362-1.349L55.5,16.09a.723.723,0,1,1,.723,1.252l-2.045,1.18a.722.722,0,0,1-.361.1" transform="translate(-35.294 -10.631)" fill="#21856a"/>
        <path id="Path_4972" data-name="Path 4972" d="M41.558,59.086a.724.724,0,0,1-.68-.476l-.808-2.218a.723.723,0,0,1,1.359-.5l.808,2.219a.723.723,0,0,1-.432.926.712.712,0,0,1-.247.044" transform="translate(-26.606 -36.84)" fill="#21856a"/>
      </g>
    </g>
  </g>
</svg>
