<svg xmlns="http://www.w3.org/2000/svg" xmlns:xlink="http://www.w3.org/1999/xlink" width="46" height="46" viewBox="0 0 46 46">
  <defs>
    <clipPath id="clip-path">
      <rect id="Rectangle_390" data-name="Rectangle 390" width="43.515" height="40.847" fill="#21856a"/>
    </clipPath>
  </defs>
  <g id="ic-farmland" transform="translate(-227 -421)">
    <rect id="Rectangle_389" data-name="Rectangle 389" width="46" height="46" transform="translate(227 421)" fill="none"/>
    <g id="Group_349" data-name="Group 349" transform="translate(228.243 423.577)">
      <g id="Group_348" data-name="Group 348" clip-path="url(#clip-path)">
        <path id="Path_4973" data-name="Path 4973" d="M25.368,37.533c1.286-1.444,7.908-8.427,17.239-10.33.058-.012.116-.027.174-.038l.026-.008a.912.912,0,0,0,.123-.037l.034-.012a.919.919,0,0,0,.135-.073l.037-.026a.907.907,0,0,0,.091-.076c.01-.009.021-.019.031-.029a.856.856,0,0,0,.1-.121l.005-.01a.9.9,0,0,0,.06-.1c0-.006,0-.012.007-.018a.926.926,0,0,0,.037-.1c.007-.023.016-.046.022-.07s.01-.063.014-.095a.728.728,0,0,0,.009-.082.791.791,0,0,0,0-.086c0-.031,0-.062-.009-.093,0-.008,0-.015,0-.023s-.013-.041-.019-.061-.016-.058-.026-.086-.026-.058-.039-.085-.024-.048-.038-.071a.792.792,0,0,0-.057-.079c-.016-.021-.032-.041-.05-.06a.946.946,0,0,0-.073-.068c-.019-.016-.038-.032-.058-.047a.86.86,0,0,0-.1-.059c-.014-.008-.026-.018-.041-.025l-.393-.189-4.733-2.277a.9.9,0,0,0-.706-.339l-5.908-2.842c-.291-.161-.586-.317-.883-.47-.144-.073-.288-.145-.433-.217s-.283-.141-.425-.209q-.313-.15-.63-.294l-.164-.075q-.384-.173-.772-.338c.6-.1,1.263-.213,1.962-.328l.907-.147c1.086-.175,2.238-.354,3.394-.525,1.316-.194,2.634-.376,3.858-.524q.464-.056.907-.105.467-.052.907-.1c1.076-.106,2.015-.169,2.72-.169a.906.906,0,0,0,0-1.813c-.72,0-1.655.06-2.72.161V12.623c3.226-.4,3.626-2.963,3.626-4.931,0-3.014-3.463-6.964-3.858-7.4a.937.937,0,0,0-1.35,0C37.969.664,35.392,3.6,34.65,6.332H32.635a.9.9,0,0,0-.725.362l-2.72,3.626a.906.906,0,0,0,.725,1.451v4.271c-1,.162-1.92.318-2.72.455V13.584a.907.907,0,0,0,.725-1.451L25.2,8.507a.9.9,0,0,0-.725-.362h-2.72a.9.9,0,0,0-.725.362l-2.72,3.626a.906.906,0,0,0,.725,1.451v2.142a33.488,33.488,0,0,0-4.742-.347c-.845,0-1.683.037-2.511.1V13.529c3.226-.4,3.626-2.963,3.626-4.931,0-3.014-3.463-6.964-3.858-7.4a.937.937,0,0,0-1.35,0,21.585,21.585,0,0,0-3.02,4.4A23.489,23.489,0,0,0,5.208,3.007a.937.937,0,0,0-1.35,0C3.463,3.447,0,7.4,0,10.411c0,1.969.4,4.533,3.626,4.931v2.006A25.134,25.134,0,0,0,.458,18.865.907.907,0,0,0,0,19.653v.119a.907.907,0,0,0,1.667.494,23.469,23.469,0,0,1,2.7-1.26q.429-.169.867-.323A27.466,27.466,0,0,1,14.3,17.192a31.748,31.748,0,0,1,4.742.367q.453.068.906.15.975.175,1.943.408,1.148.276,2.279.632.419.132.835.274c1.027.352,2.039.753,3.029,1.2l.246.111q.251.116.5.236.226.108.449.221c.124.062.248.123.371.186q.419.215.833.443l3.709,1.785a30.761,30.761,0,0,0-6.493,2.285.961.961,0,0,0-.087-.05c-.009,0-.7-.3-1.886-.707a.915.915,0,0,0-1.152.562.873.873,0,0,0,.045.689.9.9,0,0,0,.517.462h.009l.465.166a27.522,27.522,0,0,0-3.226,2.231A34.87,34.87,0,0,0,13.6,27.182,13.21,13.21,0,0,0,7.516,28.6c-1.386-.236-2.646-.373-3.718-.448a.907.907,0,0,0-.126,1.809,36.141,36.141,0,0,1,3.778.468l.107.019a30.491,30.491,0,0,1,17.527,9.428c.172.192.345.385.514.586a.907.907,0,0,0,1.384-1.172c-.524-.619-1.064-1.2-1.613-1.755M24.023,9.958l1.36,1.813H20.85l1.36-1.813ZM20.85,13.584h4.533v3.23l-.846.151a36.085,36.085,0,0,0-3.687-.934ZM34.457,8.145h2.259l1.36,1.813H31.729l1.36-1.813ZM41.7,7.691c0,1.519-.266,2.385-.981,2.817a.908.908,0,0,0-.107-.188l-2.72-3.626a.905.905,0,0,0-.725-.362h-.621a16.392,16.392,0,0,1,2.435-4.026C40.095,3.713,41.7,6.092,41.7,7.691m-9.972,4.08h6.346V14.86c-2,.237-4.253.565-6.346.893ZM6.414,7.84a5.948,5.948,0,0,1,.838,2.571,6.833,6.833,0,0,1-.138,1.52,1.859,1.859,0,0,1-1.675,1.584V11.771a.906.906,0,1,0-1.813,0v1.743c-1.349-.232-1.813-1.1-1.813-3.1,0-1.595,1.608-3.977,2.72-5.386A20.043,20.043,0,0,1,6.414,7.84M13.6,8.6c0,2.4-.661,3.173-2.72,3.173a3.119,3.119,0,0,1-1.85-.433c.027-.316.037-.629.037-.927A6.911,6.911,0,0,0,8.323,7.6a15.152,15.152,0,0,1,2.556-4.391C11.992,4.619,13.6,7,13.6,8.6M5.439,15.342A3.626,3.626,0,0,0,8.6,13.172a4.9,4.9,0,0,0,1.368.357v2.156a28.442,28.442,0,0,0-4.533,1.022ZM13.6,29a30,30,0,0,1,7.119,1.266,20.8,20.8,0,0,0-2.026,2.21,33.911,33.911,0,0,0-7.87-3.157A12.2,12.2,0,0,1,13.6,29m9.275,1.785a.9.9,0,0,0,.617-.513,28.144,28.144,0,0,1,13.382-5.747L39.946,26A36.457,36.457,0,0,0,24.052,36.282a29.961,29.961,0,0,0-3.788-2.868,21.224,21.224,0,0,1,2.609-2.633M18.5,39.288a.907.907,0,1,1-1.384,1.172c-.171-.2-.345-.4-.521-.586C10.327,33.094,1.053,33.527.959,33.537c-.018,0-.035,0-.053,0a.9.9,0,0,1-.053-1.808l.053,0c.881-.045,10.9-.341,17.59,7.564m-7.852-.024A.907.907,0,1,1,9.3,40.483c-.2-.217-.4-.42-.61-.61A11.788,11.788,0,0,0,.956,37.158c-.017,0-.033,0-.05,0a.9.9,0,0,1-.05-1.808l.05,0c.608-.022,6.067-.123,9.737,3.919m31.965-7.516c-5.56,1.494-9.495,6.464-10.68,8.125-.237.333-.367.536-.374.548a.9.9,0,0,1-1.669-.548.9.9,0,0,1,.131-.413c.194-.312,4.851-7.651,12.372-9.532a.907.907,0,0,1,.44,1.759c-.074.019-.146.041-.22.061m.337,4.434c-.115.046-.227.093-.337.14a8.767,8.767,0,0,0-4.442,3.551,2.535,2.535,0,0,0-.138.287.9.9,0,0,1-1.762-.287.891.891,0,0,1,.043-.287c.043-.127,1.1-3.14,5.962-5.088a.907.907,0,1,1,.674,1.684m-17.9-13.6A31.561,31.561,0,0,0,14.5,20.837c-8.592,0-12.991,3.395-13.034,3.429a.906.906,0,0,1-.563.2h0A.906.906,0,0,1,.34,22.848c.036-.029.226-.177.566-.4,1.512-.984,6.028-3.426,13.6-3.426A32.773,32.773,0,0,1,25.72,20.9a.907.907,0,0,1-.673,1.684m-6.572.372a.9.9,0,0,1-.263,1.786,27.058,27.058,0,0,0-3.708-.281c-6.428,0-10.453,1.84-12.284,2.928-.3.181-.553.353-.734.489l-.009.009a.932.932,0,0,1-.571.2A.912.912,0,0,1,.2,27.753a.916.916,0,0,1,.136-1.278c.011-.007.2-.159.571-.4C2.42,25.1,6.949,22.65,14.5,22.65a26.648,26.648,0,0,1,3.98.308m3.644.725a.906.906,0,0,1-.218,1.786.777.777,0,0,1-.217-.027c-.009,0-.009-.009-.018-.009a.853.853,0,0,1-.544-.408.872.872,0,0,1-.1-.689.913.913,0,0,1,1.079-.662c.009,0,.009,0,.018.009" transform="translate(0 0)" fill="#21856a"/>
      </g>
    </g>
  </g>
</svg>
