<svg xmlns="http://www.w3.org/2000/svg" width="17" height="17" viewBox="0 0 17 17">
  <g id="ic-home" transform="translate(-1552 146)">
    <g id="house-fill_1_" data-name="house-fill (1)" transform="translate(1552.501 -145.207)">
      <path id="Path_4985" data-name="Path 4985" d="M8.707,1.5a1,1,0,0,0-1.414,0L.646,8.146a.5.5,0,1,0,.708.708L8,2.207l6.646,6.647a.5.5,0,0,0,.708-.708L13,5.793V2.5a.5.5,0,0,0-.5-.5h-1a.5.5,0,0,0-.5.5V3.793Z" fill="#004e98"/>
      <path id="Path_4986" data-name="Path 4986" d="M8,3.293l6,6V13.5A1.5,1.5,0,0,1,12.5,15h-9A1.5,1.5,0,0,1,2,13.5V9.293Z" fill="#004e98"/>
    </g>
    <rect id="Rectangle_848" data-name="Rectangle 848" width="17" height="17" transform="translate(1552 -146)" fill="none"/>
  </g>
</svg>
