<svg xmlns="http://www.w3.org/2000/svg" width="17" height="17" viewBox="0 0 17 17">
  <g id="ic-sitemap" transform="translate(-1641 143)">
    <path id="diagram-3-fill" d="M6,3.5A1.5,1.5,0,0,1,7.5,2h1A1.5,1.5,0,0,1,10,3.5v1A1.5,1.5,0,0,1,8.5,6V7H14a.5.5,0,0,1,.5.5v1a.5.5,0,0,1-1,0V8h-5v.5a.5.5,0,0,1-1,0V8h-5v.5a.5.5,0,0,1-1,0v-1A.5.5,0,0,1,2,7H7.5V6A1.5,1.5,0,0,1,6,4.5Zm-6,8A1.5,1.5,0,0,1,1.5,10h1A1.5,1.5,0,0,1,4,11.5v1A1.5,1.5,0,0,1,2.5,14h-1A1.5,1.5,0,0,1,0,12.5Zm6,0A1.5,1.5,0,0,1,7.5,10h1A1.5,1.5,0,0,1,10,11.5v1A1.5,1.5,0,0,1,8.5,14h-1A1.5,1.5,0,0,1,6,12.5Zm6,0A1.5,1.5,0,0,1,13.5,10h1A1.5,1.5,0,0,1,16,11.5v1A1.5,1.5,0,0,1,14.5,14h-1A1.5,1.5,0,0,1,12,12.5Z" transform="translate(1642 -142)" fill="#004e98" fill-rule="evenodd"/>
    <rect id="Rectangle_849" data-name="Rectangle 849" width="17" height="17" transform="translate(1641 -143)" fill="none"/>
  </g>
</svg>
