<svg id="logo" xmlns="http://www.w3.org/2000/svg" xmlns:xlink="http://www.w3.org/1999/xlink" width="47.634" height="38" viewBox="0 0 47.634 38">
  <defs>
    <clipPath id="clip-path">
      <rect id="Rectangle_842" data-name="Rectangle 842" width="47.634" height="38" fill="#21856a"/>
    </clipPath>
  </defs>
  <g id="Group_991" data-name="Group 991" clip-path="url(#clip-path)">
    <path id="Path_4997" data-name="Path 4997" d="M133.367,80l-.282.282.282-.282-5.994-5.931a7.183,7.183,0,0,0,1.5-4.343v-.061h0v-.011h0a7.211,7.211,0,0,0-7.2-7.2h-.019a7.212,7.212,0,0,0-7.2,7.206h0v.006h0v0s0,.008,0,.014a7.212,7.212,0,0,0,7.2,7.193h.017a7.184,7.184,0,0,0,4.394-1.5l5.994,5.931A.93.93,0,1,0,133.367,80M121.66,75.021a5.353,5.353,0,1,1,3.785-1.568,5.331,5.331,0,0,1-3.785,1.568m-7.213-5.359Z" transform="translate(-86.005 -46.935)" fill="#21856a"/>
    <path id="Path_4998" data-name="Path 4998" d="M136.96,83.132h-4.275a.722.722,0,0,0,0,1.445H134.1v3.552a.722.722,0,1,0,1.445,0V84.577h1.415a.722.722,0,0,0,0-1.445" transform="translate(-99.168 -62.472)" fill="#21856a"/>
    <path id="Path_4999" data-name="Path 4999" d="M25.772,36.961l-.128-.263.126.264h0l-.128-.263.126.264a13.331,13.331,0,0,1,5.313-.9,22.251,22.251,0,0,1,4.053.387.87.87,0,1,0,.317-1.711,23.993,23.993,0,0,0-4.37-.417A14.776,14.776,0,0,0,25.008,35.4a.87.87,0,1,0,.764,1.563Z" transform="translate(-18.426 -25.793)" fill="#21856a"/>
    <path id="Path_5000" data-name="Path 5000" d="M126.043,35.4a14.769,14.769,0,0,0-6.074-1.075,24,24,0,0,0-4.37.417.87.87,0,1,0,.317,1.711,22.254,22.254,0,0,1,4.053-.387,16.213,16.213,0,0,1,4.008.466,9.838,9.838,0,0,1,1.006.311c.109.041.189.074.239.1l.052.023.009,0,.125-.264-.128.262h0l.125-.264-.128.262a.87.87,0,0,0,.764-1.563Z" transform="translate(-86.335 -25.793)" fill="#21856a"/>
    <path id="Path_5001" data-name="Path 5001" d="M25.772,57.381l-.128-.263.126.264h0l-.128-.263.126.264a13.331,13.331,0,0,1,5.313-.9,22.251,22.251,0,0,1,4.053.387.87.87,0,1,0,.317-1.711,23.993,23.993,0,0,0-4.37-.417,14.777,14.777,0,0,0-6.074,1.075.87.87,0,1,0,.764,1.563Z" transform="translate(-18.426 -41.138)" fill="#21856a"/>
    <path id="Path_5002" data-name="Path 5002" d="M25.772,77.8l-.128-.263.126.264h0l-.128-.263.126.264a13.332,13.332,0,0,1,5.313-.9,22.253,22.253,0,0,1,4.053.387.87.87,0,1,0,.317-1.711,23.993,23.993,0,0,0-4.37-.417,14.777,14.777,0,0,0-6.074,1.075.87.87,0,1,0,.764,1.563Z" transform="translate(-18.426 -56.484)" fill="#21856a"/>
    <path id="Path_5003" data-name="Path 5003" d="M45.549,3.333A39.5,39.5,0,0,0,33.966.128C30.2-.251,26.055.117,23.2,2.573,20.343.117,16.2-.249,12.432.128A39.5,39.5,0,0,0,.85,3.333,1.45,1.45,0,0,0,0,4.652v31.9a1.45,1.45,0,0,0,2.05,1.32,36.708,36.708,0,0,1,10.671-2.958c4.086-.412,7.511.252,9.347,2.543a1.45,1.45,0,0,0,2.262,0c1.836-2.291,5.26-2.955,9.343-2.543.512.051,1.025.12,1.538.2.437.07.872.15,1.3.238a1.577,1.577,0,0,0,.435-2.87q-.567-.112-1.14-.207c-.613-.1-1.229-.183-1.845-.245-3.173-.322-6.606-.113-9.317,1.427V5.194c1.9-2,5.167-2.569,9.024-2.181A36.347,36.347,0,0,1,43.5,5.6V21A1.579,1.579,0,0,0,46.4,21V4.652a1.45,1.45,0,0,0-.849-1.319m-23.8,30.124c-2.711-1.537-6.148-1.749-9.317-1.43A38.787,38.787,0,0,0,2.9,34.379V5.6a36.347,36.347,0,0,1,9.825-2.59c3.857-.389,7.128.183,9.024,2.181Z" transform="translate(0 0)" fill="#21856a"/>
  </g>
</svg>
