<svg id="logo-footer" xmlns="http://www.w3.org/2000/svg" xmlns:xlink="http://www.w3.org/1999/xlink" width="70.98" height="56.624" viewBox="0 0 70.98 56.624">
  <defs>
    <clipPath id="clip-path">
      <rect id="Rectangle_842" data-name="Rectangle 842" width="70.98" height="56.624" fill="#333"/>
    </clipPath>
  </defs>
  <g id="Group_991" data-name="Group 991" clip-path="url(#clip-path)">
    <path id="Path_4997" data-name="Path 4997" d="M142.64,88.595l-.421.421.421-.421-8.931-8.837a10.7,10.7,0,0,0,2.232-6.472l0-.007V73.2h0v-.017h0a10.746,10.746,0,0,0-10.736-10.723h-.028a10.747,10.747,0,0,0-10.731,10.738h0V73.2h0v.007c0,.006,0,.012,0,.021a10.746,10.746,0,0,0,10.729,10.718h.025a10.705,10.705,0,0,0,6.547-2.234l8.931,8.837a1.386,1.386,0,1,0,1.96-1.96M125.195,81.18a7.976,7.976,0,1,1,5.64-2.336,7.943,7.943,0,0,1-5.64,2.336m-10.748-7.985Z" transform="translate(-72.065 -39.327)" fill="#333"/>
    <path id="Path_4998" data-name="Path 4998" d="M139.409,83.132h-6.37a1.076,1.076,0,0,0,0,2.153h2.109v5.293a1.076,1.076,0,1,0,2.153,0V85.285h2.109a1.076,1.076,0,0,0,0-2.153" transform="translate(-83.095 -52.347)" fill="#333"/>
    <path id="Path_4999" data-name="Path 4999" d="M26.385,38.254l-.191-.391.187.394,0,0-.191-.391.187.394A19.865,19.865,0,0,1,34.3,36.915a33.156,33.156,0,0,1,6.04.577,1.3,1.3,0,1,0,.472-2.549,35.752,35.752,0,0,0-6.512-.621,22.018,22.018,0,0,0-9.051,1.6,1.3,1.3,0,1,0,1.138,2.329Z" transform="translate(-15.44 -21.613)" fill="#333"/>
    <path id="Path_5000" data-name="Path 5000" d="M131.51,35.925a22.008,22.008,0,0,0-9.051-1.6,35.759,35.759,0,0,0-6.512.621,1.3,1.3,0,0,0,.472,2.549,33.161,33.161,0,0,1,6.04-.577,24.159,24.159,0,0,1,5.972.695,14.659,14.659,0,0,1,1.5.463c.163.061.282.111.356.143l.077.034.013.006.187-.393-.191.391,0,0,.187-.393-.191.391a1.3,1.3,0,0,0,1.138-2.329Z" transform="translate(-72.342 -21.613)" fill="#333"/>
    <path id="Path_5001" data-name="Path 5001" d="M26.385,58.674l-.191-.391.187.394,0,0-.191-.391.187.394A19.865,19.865,0,0,1,34.3,57.335a33.156,33.156,0,0,1,6.04.577,1.3,1.3,0,1,0,.472-2.549,35.752,35.752,0,0,0-6.512-.621,22.019,22.019,0,0,0-9.051,1.6,1.3,1.3,0,1,0,1.138,2.329Z" transform="translate(-15.44 -34.471)" fill="#333"/>
    <path id="Path_5002" data-name="Path 5002" d="M26.385,79.094l-.191-.391.187.394,0,0-.191-.391.187.394A19.865,19.865,0,0,1,34.3,77.755a33.158,33.158,0,0,1,6.04.577,1.3,1.3,0,1,0,.472-2.549,35.752,35.752,0,0,0-6.512-.621,22.018,22.018,0,0,0-9.051,1.6,1.3,1.3,0,1,0,1.138,2.329Z" transform="translate(-15.44 -47.329)" fill="#333"/>
    <path id="Path_5003" data-name="Path 5003" d="M67.872,4.966A58.864,58.864,0,0,0,50.613.191C45-.375,38.825.174,34.569,3.834,30.313.174,24.142-.371,18.525.191A58.86,58.86,0,0,0,1.266,4.966,2.161,2.161,0,0,0,0,6.932V54.464A2.161,2.161,0,0,0,3.055,56.43a54.7,54.7,0,0,1,15.9-4.408c6.089-.614,11.192.376,13.927,3.789a2.16,2.16,0,0,0,3.37,0c2.735-3.414,7.839-4.4,13.922-3.789.762.077,1.528.178,2.291.3.651.1,1.3.223,1.943.354A2.35,2.35,0,0,0,55.06,48.4q-.844-.167-1.7-.308c-.913-.149-1.831-.273-2.748-.365-4.727-.48-9.843-.168-13.884,2.126V7.74c2.826-2.977,7.7-3.828,13.447-3.249a54.16,54.16,0,0,1,14.64,3.859V31.287a2.353,2.353,0,0,0,4.321.011V6.932a2.16,2.16,0,0,0-1.266-1.966M32.408,49.854c-4.04-2.29-9.161-2.606-13.884-2.13a57.8,57.8,0,0,0-14.2,3.5V8.349a54.161,54.161,0,0,1,14.64-3.859c5.747-.579,10.621.272,13.447,3.249Z" transform="translate(0 0)" fill="#333"/>
  </g>
</svg>
